<svg xmlns="http://www.w3.org/2000/svg" xmlns:xlink="http://www.w3.org/1999/xlink" width="412" height="847" viewBox="0 0 412 847">
  <defs>
    <radialGradient id="radial-gradient" cx="0.5" cy="0.5" r="0.5" gradientUnits="objectBoundingBox">
      <stop offset="0" stop-color="#f6a0ac"/>
      <stop offset="1" stop-color="#7b5056"/>
    </radialGradient>
    <radialGradient id="radial-gradient-2" cx="0.5" cy="0.5" r="0.5" gradientUnits="objectBoundingBox">
      <stop offset="0" stop-color="#70a9bf"/>
      <stop offset="1" stop-color="#385560"/>
    </radialGradient>
    <clipPath id="clip-Login">
      <rect width="412" height="847"/>
    </clipPath>
  </defs>
  <g id="Login" clip-path="url(#clip-Login)">
    <rect width="412" height="847" fill="#fff"/>
    <ellipse id="Ellipse_30" data-name="Ellipse 30" cx="111.5" cy="114.5" rx="111.5" ry="114.5" transform="translate(154 13)" fill="url(#radial-gradient)"/>
    <circle id="Ellipse_31" data-name="Ellipse 31" cx="85.5" cy="85.5" r="85.5" transform="translate(36 42)" fill="url(#radial-gradient-2)"/>
    <g id="loginIllustration" transform="translate(179 41.787)">
      <path id="Path_33" data-name="Path 33" d="M78.431,325.809,92.018,315.18,78.424,326.965l-.008,1.209q-1.453-.007-2.877-.052c0-.275,1.15-15.382,1.1-15.655.067-.01.1-1.429.131-1.491L62.578,299.362l14.209,10.515.042.311.843-11.737-12.2-12.02,12.3,9.957c0-.16.582-24.259.588-24.408,0,.079.269,19.179.27,19.259L90.3,283.551l-11.68,9.34-.06,10.5,10.829-10.158c-13.514,14.814-10.523,9.63-10.868,17.544l15.729-14.145L78.5,312.82Z" transform="translate(-62.524 -227.416)" fill="#70a9bf"/>
      <path id="Path_34" data-name="Path 34" d="M1081.1,584.476l4.246-6.1-4.248,6.764,0,.694q-.454,0-.9-.03c0-.158.36-8.829.344-8.986.021-.006.033-.82.041-.856l-4.435-6.666,4.44,6.035.013.178.264-6.737-3.813-6.9,3.843,5.715c0-.092.182-13.924.184-14.01,0,.045.084,11.008.084,11.054l3.647-4.413-3.651,5.361-.019,6.03,3.384-5.831c-4.223,8.5-3.289,5.528-3.4,10.07l4.916-8.119-4.92,9.288Z" transform="translate(-913.292 -484.989)" fill="#f6a0ac"/>
      <ellipse id="Ellipse_13" data-name="Ellipse 13" cx="86.094" cy="3.373" rx="86.094" ry="3.373" transform="translate(0 97.161)" fill="#333"/>
      <rect id="Rectangle_1" data-name="Rectangle 1" width="98.302" height="58.607" transform="translate(29.555 39.84)" fill="#3f3d56"/>
      <path id="Path_35" data-name="Path 35" d="M270.57,374.581a23.508,23.508,0,0,1-23.5,23.125c-.276,0-.551,0-.826-.014V374.581Z" transform="translate(-216.687 -334.741)" fill="#f6a0ac"/>
      <path id="Path_36" data-name="Path 36" d="M533.321,722.406h-9.349a4.981,4.981,0,0,1,9.349,0Z" transform="translate(-449.807 -623.959)" fill="#f6a0ac"/>
      <path id="Path_37" data-name="Path 37" d="M809.122,550.721v19.741a9.882,9.882,0,0,1,0-19.741Z" transform="translate(-681.266 -482.589)" fill="#f6a0ac"/>
      <rect id="Rectangle_2" data-name="Rectangle 2" width="67.806" height="5.792" rx="2.896" transform="translate(44.888 61.136)" fill="#fff"/>
      <rect id="Rectangle_3" data-name="Rectangle 3" width="67.806" height="5.792" rx="2.896" transform="translate(44.888 72.551)" fill="#fff"/>
      <rect id="Rectangle_4" data-name="Rectangle 4" width="23.773" height="5.792" rx="2.896" transform="translate(88.921 83.965)" fill="#fff"/>
      <path id="Path_38" data-name="Path 38" d="M939.6,238.649a4.979,4.979,0,0,1,2.853,4.505c.15,3.454-.751,13.065-.751,13.065s3.3,4.805.751,6.157-2.853-5.406-2.853-5.406l-3-14.266S938.4,238.5,939.6,238.649Z" transform="translate(-796.153 -220.64)" fill="#a0616a"/>
      <path id="Path_39" data-name="Path 39" d="M747.809,204.729s-6.457,4.2-6.758.9S743,189.412,743,189.412s.3-5.556,3.454-4.2-.9,6.007-.9,6.007l.45,10.512,3-.15Z" transform="translate(-631.995 -175.607)" fill="#a0616a"/>
      <path id="Path_40" data-name="Path 40" d="M749.471,316.791s-19.823-7.358-18.771,1.2,6.157,19.372,6.157,19.372l1.8,2.853h3.754l-2.4-15.468s8.56,4.806,11.113,4.055c0,0,3.3,22.075,4.505,23.727s3.3,21.625,3.3,21.625l1.952,2.4h3.754V342.771s6.457-21.024,1.5-22.075S749.471,316.791,749.471,316.791Z" transform="translate(-623.296 -283.765)" fill="#2f2e41"/>
      <path id="Path_41" data-name="Path 41" d="M717.713,462.021s-.9-1.652-2.4,0a25.19,25.19,0,0,1-5.106,3.6s-7.809,1.8-1.5,3.3,7.058,0,7.058,0,1.051.3,1.952.6,6.758-.751,6.758-1.652-1.988-6.286-2.8-5.471S717.713,462.021,717.713,462.021Z" transform="translate(-602.8 -407.52)" fill="#2f2e41"/>
      <path id="Path_42" data-name="Path 42" d="M871.318,687.715s-2.214-1.823-2.735-1.3-3.256,4.038-3.256,4.038-7.294,5.6-.651,6.513,6.252-1.563,6.252-1.563h2.084c.261,0,3.777-1.563,3.647-2.214s-1.693-5.962-2.214-5.586S871.318,687.715,871.318,687.715Z" transform="translate(-733.441 -596.407)" fill="#2f2e41"/>
      <circle id="Ellipse_14" data-name="Ellipse 14" cx="5.106" cy="5.106" r="5.106" transform="translate(112.66 2.091)" fill="#a0616a"/>
      <path id="Path_43" data-name="Path 43" d="M801.379,167.615s3.9,3.3,6.608,3.3-3.9,6.157-3.9,6.157l-5.857-5.256Z" transform="translate(-680.009 -161.019)" fill="#a0616a"/>
      <path id="Path_44" data-name="Path 44" d="M781.3,177.714l-.117-1.183s2.97-5.274,3.871-5.725a3.727,3.727,0,0,1,1.5-.451s3-3.154,6.307-1.5,11.113,12.164,11.113,12.164-5.556.451-4.805,4.806c0,0,5.556,14.266,4.055,14.417s-6.007-.9-10.662,1.2-6.758.751-6.758.751l-2.4-7.809s-4.505-2.553-4.355-4.806l-6.532,2.928.6-5.556,3.98-4.58S776.344,181.768,781.3,177.714Z" transform="translate(-658.428 -161.657)" fill="#6c63ff"/>
      <path id="Path_45" data-name="Path 45" d="M752.817,134.3a1.887,1.887,0,0,1-.742.5.647.647,0,0,1-.773-.3l.216-.281-.647-.4.282-.331-.521-.566.411-.326-.783-.56a13.937,13.937,0,0,1,3.716-4.433,5.131,5.131,0,0,1,5.485-.45,6,6,0,0,1,1.938,2.281,13.283,13.283,0,0,1,1.954,5.543c-.61-.594-1.5-.929-2.111-1.523a4.572,4.572,0,0,0-.911-.745,7.62,7.62,0,0,0-2.116-.554,3.179,3.179,0,0,1-1.445-.794c-.541-.46-.563-.282-1.109.236Q754.241,132.951,752.817,134.3Z" transform="translate(-639.748 -126.55)" fill="#2f2e41"/>
    </g>
    <g id="login_text" transform="translate(-245.655 257)">
      <g id="surface1" transform="translate(316 -154)">
        <g id="Group_3" data-name="Group 3" transform="translate(0)">
          <g id="Group_2" data-name="Group 2">
            <path id="Path_20" data-name="Path 20" d="M11.405-75.875v38.106H6.344V-75.875Zm0,0" transform="translate(-6.344 75.875)" fill="#fff"/>
          </g>
        </g>
        <g id="Group_5" data-name="Group 5" transform="translate(9.238 12.532)">
          <g id="Group_4" data-name="Group 4" transform="translate(0 0)">
            <path id="Path_21" data-name="Path 21" d="M15.227-24.72a11.809,11.809,0,0,1-4.881-1.02,12.508,12.508,0,0,1-3.963-2.794,13.38,13.38,0,0,1-2.692-4.175A13.3,13.3,0,0,1,2.7-37.825a13.31,13.31,0,0,1,.989-5.116,13.4,13.4,0,0,1,2.692-4.175A12.454,12.454,0,0,1,10.346-49.9a11.808,11.808,0,0,1,4.881-1.02,11.872,11.872,0,0,1,4.857,1.02,12.372,12.372,0,0,1,3.994,2.786,13.313,13.313,0,0,1,2.684,4.175,13.242,13.242,0,0,1,1,5.116,13.235,13.235,0,0,1-1,5.116,13.291,13.291,0,0,1-2.684,4.175,12.424,12.424,0,0,1-3.994,2.794A11.873,11.873,0,0,1,15.227-24.72Zm0-21.666a6.29,6.29,0,0,0-2.864.683,7.75,7.75,0,0,0-2.378,1.828A8.312,8.312,0,0,0,8.392-41.16a9.6,9.6,0,0,0-.573,3.335,9.652,9.652,0,0,0,.573,3.343,8.68,8.68,0,0,0,1.593,2.739,7.672,7.672,0,0,0,2.378,1.86,6.332,6.332,0,0,0,2.864.675,6.359,6.359,0,0,0,2.872-.675,7.354,7.354,0,0,0,2.346-1.86,9.015,9.015,0,0,0,1.569-2.739,9.7,9.7,0,0,0,.573-3.343,9.646,9.646,0,0,0-.573-3.335,8.621,8.621,0,0,0-1.569-2.715A7.423,7.423,0,0,0,18.1-45.7,6.316,6.316,0,0,0,15.227-46.386Zm0,0" transform="translate(-2.703 50.922)" fill="#fff"/>
          </g>
        </g>
        <g id="Group_7" data-name="Group 7" transform="translate(37.686 12.532)">
          <g id="Group_6" data-name="Group 6" transform="translate(0 0)">
            <path id="Path_22" data-name="Path 22" d="M16.53-26.6a11.824,11.824,0,0,1-4.81-.965,11.747,11.747,0,0,1-3.806-2.66,12.554,12.554,0,0,1-2.535-3.916,12.3,12.3,0,0,1-.91-4.724,12.081,12.081,0,0,1,.91-4.693A12,12,0,0,1,7.914-47.4,11.716,11.716,0,0,1,11.72-49.98a12.079,12.079,0,0,1,4.81-.942,12.027,12.027,0,0,1,4.536.785,10.141,10.141,0,0,1,3.4,2.236l1.044-2.448H29.47v6.686q0,2.189.024,5.477t.031,7.981q0,1.571-.11,3.06a17.167,17.167,0,0,1-.439,2.864,12.3,12.3,0,0,1-.989,2.668,11.351,11.351,0,0,1-1.75,2.48,10.45,10.45,0,0,1-4.724,2.943,20.02,20.02,0,0,1-5.564.761,17.308,17.308,0,0,1-4.724-.628,17.022,17.022,0,0,1-3.986-1.671v-5.634A7.235,7.235,0,0,0,10.5-20.914a12.787,12.787,0,0,0,5.038.942,11.921,11.921,0,0,0,3.5-.494,7.855,7.855,0,0,0,2.817-1.515,7.156,7.156,0,0,0,1.907-2.637,9.6,9.6,0,0,0,.706-3.861v-1a8.381,8.381,0,0,1-1.546,1.106,13.086,13.086,0,0,1-1.985.91,16.01,16.01,0,0,1-2.213.62A10.9,10.9,0,0,1,16.53-26.6ZM17-46.331a7.331,7.331,0,0,0-2.872.573,7.394,7.394,0,0,0-2.378,1.593,7.373,7.373,0,0,0-1.593,2.378,7.429,7.429,0,0,0-.573,2.919,7.6,7.6,0,0,0,.573,2.951,7.268,7.268,0,0,0,1.593,2.4,7.778,7.778,0,0,0,2.378,1.624A7.047,7.047,0,0,0,17-31.3a8.684,8.684,0,0,0,2.864-.471,6.4,6.4,0,0,0,2.346-1.413,6.621,6.621,0,0,0,1.569-2.346,8.9,8.9,0,0,0,.573-3.343,9.4,9.4,0,0,0-.573-3.468,6.071,6.071,0,0,0-1.569-2.323,5.951,5.951,0,0,0-2.346-1.279A10.3,10.3,0,0,0,17-46.331Zm0,0" transform="translate(-4.469 50.922)" fill="#fff"/>
          </g>
        </g>
        <g id="Group_9" data-name="Group 9" transform="translate(68.693 1.146)">
          <g id="Group_8" data-name="Group 8" transform="translate(0 0)">
            <path id="Path_23" data-name="Path 23" d="M10.573-36.633H5.511v-25h5.014ZM8.014-67.065a3.088,3.088,0,0,1-2.3-.965,3.213,3.213,0,0,1-.934-2.323,3.138,3.138,0,0,1,.934-2.3,3.126,3.126,0,0,1,2.3-.942,3.129,3.129,0,0,1,2.3.942,3.129,3.129,0,0,1,.942,2.3,3.2,3.2,0,0,1-.942,2.323A3.091,3.091,0,0,1,8.014-67.065Zm0,0" transform="translate(-4.781 73.594)" fill="#fff"/>
          </g>
        </g>
        <g id="Group_11" data-name="Group 11" transform="translate(80.071 12.532)">
          <g id="Group_10" data-name="Group 10" transform="translate(0 0)">
            <path id="Path_24" data-name="Path 24" d="M10.671-25.348H5.609v-25H9.627l1.044,2.189A10.3,10.3,0,0,1,13.7-50.137a9.471,9.471,0,0,1,3.869-.785,13.252,13.252,0,0,1,3.068.416,8.49,8.49,0,0,1,3.217,1.569,8.982,8.982,0,0,1,2.5,3.178,11.8,11.8,0,0,1,1.02,5.273v15.137h-4.8V-40.54a6.787,6.787,0,0,0-.494-2.739,4.856,4.856,0,0,0-1.3-1.8,4.791,4.791,0,0,0-1.828-.965,7.76,7.76,0,0,0-2.119-.29,6.948,6.948,0,0,0-1.907.314A6.3,6.3,0,0,0,12.915-45a6.293,6.293,0,0,0-1.593,1.773,4.967,4.967,0,0,0-.651,2.637Zm0,0" transform="translate(-5.609 50.922)" fill="#fff"/>
          </g>
        </g>
      </g>
    </g>
    <g id="welcome" transform="translate(64.242 -27.801)">
      <g id="Group_261" data-name="Group 261" transform="translate(127.569 179.7)">
        <g id="Group_260" data-name="Group 260" transform="translate(0 0)">
          <path id="Path_583" data-name="Path 583" d="M18.369-12.766h2.621L16.233,3.094H13.943L10.992-6.767l-.369-1.786L10.216-6.67,7.285,3.094H4.975L.219-12.766H2.781L6.042-.692,9.75-12.766h1.766L15.146-.789Zm0,0" transform="translate(-0.219 12.766)" fill="#fff"/>
        </g>
      </g>
      <g id="Group_263" data-name="Group 263" transform="translate(149.434 184.611)">
        <g id="Group_262" data-name="Group 262">
          <path id="Path_584" data-name="Path 584" d="M6.184,2.407A5.718,5.718,0,0,1,3.991,1.98,5.731,5.731,0,0,1,2.224.777a5.65,5.65,0,0,1-1.2-1.786A5.629,5.629,0,0,1,.594-3.2,5.912,5.912,0,0,1,1-5.4,5.946,5.946,0,0,1,2.127-7.182a5.017,5.017,0,0,1,1.631-1.2,4.908,4.908,0,0,1,2.019-.427A5.145,5.145,0,0,1,7.8-8.424,4.025,4.025,0,0,1,9.407-7.24,5.419,5.419,0,0,1,10.474-5.2a10.021,10.021,0,0,1,.388,2.951H2.9a3.589,3.589,0,0,0,.485,1.087,3.511,3.511,0,0,0,.8.874A3.71,3.71,0,0,0,5.214.292a3.618,3.618,0,0,0,1.2.194A3.859,3.859,0,0,0,7.97.175,4.3,4.3,0,0,0,9.232-.66L10.571.68A6.264,6.264,0,0,1,8.65,1.942,6.391,6.391,0,0,1,6.184,2.407ZM5.777-6.852a2.318,2.318,0,0,0-.971.214,3.38,3.38,0,0,0-.854.544,3.424,3.424,0,0,0-.679.854,3.551,3.551,0,0,0-.388,1.068H8.533A3.233,3.233,0,0,0,8.281-5.2a2.643,2.643,0,0,0-.563-.854,2.689,2.689,0,0,0-.835-.582A2.663,2.663,0,0,0,5.777-6.852Zm0,0" transform="translate(-0.594 8.812)" fill="#fff"/>
        </g>
      </g>
      <g id="Group_265" data-name="Group 265" transform="translate(161.907 179.234)">
        <g id="Group_264" data-name="Group 264" transform="translate(0 0)">
          <path id="Path_585" data-name="Path 585" d="M3.268-13.141V3.185H1.094V-13.141Zm0,0" transform="translate(-1.094 13.141)" fill="#fff"/>
        </g>
      </g>
      <g id="Group_267" data-name="Group 267" transform="translate(166.085 184.611)">
        <g id="Group_266" data-name="Group 266">
          <path id="Path_586" data-name="Path 586" d="M6.018,2.407a5.19,5.19,0,0,1-2.1-.427A5.587,5.587,0,0,1,2.213.777,5.667,5.667,0,0,1,1.068-1.009,5.629,5.629,0,0,1,.641-3.2,5.646,5.646,0,0,1,1.068-5.4,5.722,5.722,0,0,1,2.213-7.182a5.275,5.275,0,0,1,1.708-1.2,5.19,5.19,0,0,1,2.1-.427,4.994,4.994,0,0,1,2.388.582,5.236,5.236,0,0,1,1.844,1.572L8.716-5.474A3.3,3.3,0,0,0,7.59-6.483a3.06,3.06,0,0,0-1.456-.369,2.883,2.883,0,0,0-1.281.291A3.26,3.26,0,0,0,3.8-5.8a3.712,3.712,0,0,0-.718,1.165A4.068,4.068,0,0,0,2.834-3.2a4.049,4.049,0,0,0,.252,1.436A3.947,3.947,0,0,0,3.8-.6a3.232,3.232,0,0,0,1.048.8A2.883,2.883,0,0,0,6.134.486,2.771,2.771,0,0,0,7.706.02,3.781,3.781,0,0,0,8.871-1.242l1.475,1.3A5.2,5.2,0,0,1,8.5,1.767,5.015,5.015,0,0,1,6.018,2.407Zm0,0" transform="translate(-0.641 8.812)" fill="#fff"/>
        </g>
      </g>
      <g id="Group_269" data-name="Group 269" transform="translate(177.232 184.611)">
        <g id="Group_268" data-name="Group 268">
          <path id="Path_587" data-name="Path 587" d="M5.826,2.407A5.148,5.148,0,0,1,3.749,1.98,5.587,5.587,0,0,1,2.041.777,5.667,5.667,0,0,1,.9-1.009,5.629,5.629,0,0,1,.469-3.2,5.646,5.646,0,0,1,.9-5.4,5.722,5.722,0,0,1,2.041-7.182a5.275,5.275,0,0,1,1.708-1.2,5.148,5.148,0,0,1,2.077-.427A5.165,5.165,0,0,1,7.9-8.385a5.075,5.075,0,0,1,1.708,1.2A5.687,5.687,0,0,1,10.776-5.4,5.736,5.736,0,0,1,11.2-3.2a5.718,5.718,0,0,1-.427,2.194A5.632,5.632,0,0,1,9.612.777,5.363,5.363,0,0,1,7.9,1.98,5.165,5.165,0,0,1,5.826,2.407Zm0-9.279A2.7,2.7,0,0,0,4.6-6.58,3.573,3.573,0,0,0,3.575-5.8,3.628,3.628,0,0,0,2.9-4.639,4.412,4.412,0,0,0,2.662-3.2,4.391,4.391,0,0,0,2.9-1.766,3.85,3.85,0,0,0,3.575-.6,3.319,3.319,0,0,0,4.6.195,2.7,2.7,0,0,0,5.826.486,2.75,2.75,0,0,0,7.069.195,3.137,3.137,0,0,0,8.078-.6a3.708,3.708,0,0,0,.66-1.165A4.16,4.16,0,0,0,8.991-3.2a4.18,4.18,0,0,0-.252-1.436A3.5,3.5,0,0,0,8.078-5.8,3.364,3.364,0,0,0,7.069-6.58,2.75,2.75,0,0,0,5.826-6.871Zm0,0" transform="translate(-0.469 8.812)" fill="#fff"/>
        </g>
      </g>
      <g id="Group_271" data-name="Group 271" transform="translate(189.718 184.611)">
        <g id="Group_270" data-name="Group 270" transform="translate(0)">
          <path id="Path_588" data-name="Path 588" d="M3.17,2.136H1.016V-8.58H2.724l.446.912a3.907,3.907,0,0,1,.971-.8A2.515,2.515,0,0,1,5.5-8.812a3.932,3.932,0,0,1,.7.078,3.576,3.576,0,0,1,.815.272,2.913,2.913,0,0,1,.776.5,3.009,3.009,0,0,1,.66.835A3.329,3.329,0,0,1,9.6-8.308a2.981,2.981,0,0,1,1.65-.5,4.648,4.648,0,0,1,1.223.175,2.858,2.858,0,0,1,1.2.679A3.467,3.467,0,0,1,14.584-6.6a5.828,5.828,0,0,1,.369,2.252V2.136H12.934v-6.5a2.6,2.6,0,0,0-.582-1.941,2.112,2.112,0,0,0-1.514-.544,1.643,1.643,0,0,0-1.242.6,2.784,2.784,0,0,0-.544,1.9V2.136H7.014v-6.5a2.665,2.665,0,0,0-.563-1.941,2.112,2.112,0,0,0-1.514-.544,1.567,1.567,0,0,0-1.165.524,2.491,2.491,0,0,0-.6,1.592Zm0,0" transform="translate(-1.016 8.812)" fill="#fff"/>
        </g>
      </g>
      <g id="Group_273" data-name="Group 273" transform="translate(205.698 184.611)">
        <g id="Group_272" data-name="Group 272" transform="translate(0)">
          <path id="Path_589" data-name="Path 589" d="M6.184,2.407A5.718,5.718,0,0,1,3.991,1.98,5.731,5.731,0,0,1,2.224.777a5.65,5.65,0,0,1-1.2-1.786A5.629,5.629,0,0,1,.594-3.2,5.912,5.912,0,0,1,1-5.4,5.946,5.946,0,0,1,2.127-7.182a5.017,5.017,0,0,1,1.631-1.2,4.908,4.908,0,0,1,2.019-.427A5.145,5.145,0,0,1,7.8-8.424,4.025,4.025,0,0,1,9.407-7.24,5.419,5.419,0,0,1,10.474-5.2a10.021,10.021,0,0,1,.388,2.951H2.9a3.589,3.589,0,0,0,.485,1.087,3.511,3.511,0,0,0,.8.874A3.71,3.71,0,0,0,5.214.292a3.618,3.618,0,0,0,1.2.194A3.859,3.859,0,0,0,7.97.175,4.3,4.3,0,0,0,9.232-.66L10.571.68A6.264,6.264,0,0,1,8.65,1.942,6.391,6.391,0,0,1,6.184,2.407ZM5.777-6.852a2.318,2.318,0,0,0-.971.214,3.38,3.38,0,0,0-.854.544,3.424,3.424,0,0,0-.679.854,3.551,3.551,0,0,0-.388,1.068H8.533A3.233,3.233,0,0,0,8.281-5.2a2.643,2.643,0,0,0-.563-.854,2.689,2.689,0,0,0-.835-.582A2.663,2.663,0,0,0,5.777-6.852Zm0,0" transform="translate(-0.594 8.812)" fill="#fff"/>
        </g>
      </g>
      <g id="Group_275" data-name="Group 275" transform="translate(216.812 195.56)">
        <g id="Group_274" data-name="Group 274">
          <path id="Path_590" data-name="Path 590" fill="#fff"/>
        </g>
      </g>
      <g id="Group_277" data-name="Group 277" transform="translate(223.91 179.7)">
        <g id="Group_276" data-name="Group 276" transform="translate(0 0)">
          <path id="Path_591" data-name="Path 591" d="M12.236-1.332A4.328,4.328,0,0,1,11.886.4a4.515,4.515,0,0,1-.951,1.4,4.465,4.465,0,0,1-1.417.951,4.345,4.345,0,0,1-1.728.349H1.016V-12.766H7.208a3.841,3.841,0,0,1,1.514.311,3.911,3.911,0,0,1,1.242.854,4.085,4.085,0,0,1,.854,1.281,3.884,3.884,0,0,1,.311,1.534A5.2,5.2,0,0,1,10.8-6.9,3.315,3.315,0,0,1,9.712-5.486,3.456,3.456,0,0,1,11.6-3.894,5.1,5.1,0,0,1,12.236-1.332ZM3.326-6.34c.592.015,1.15.019,1.669.019H7.227a1.813,1.813,0,0,0,1.417-.641A2.2,2.2,0,0,0,9.227-8.5a2.165,2.165,0,0,0-.582-1.534,1.844,1.844,0,0,0-1.417-.621h-3.9Zm0,7.26a6.88,6.88,0,0,0,.7.019H7.79A1.983,1.983,0,0,0,8.664.745,2.218,2.218,0,0,0,9.382.2a2.427,2.427,0,0,0,.5-.815,2.846,2.846,0,0,0,.175-1.009,2.72,2.72,0,0,0-.175-.99,2.427,2.427,0,0,0-.5-.815,2.288,2.288,0,0,0-.718-.544,2.053,2.053,0,0,0-.874-.194H3.326Zm0,0" transform="translate(-1.016 12.766)" fill="#fff"/>
        </g>
      </g>
      <g id="Group_279" data-name="Group 279" transform="translate(236.745 184.611)">
        <g id="Group_278" data-name="Group 278">
          <path id="Path_592" data-name="Path 592" d="M11.282-8.58V2.136H9.437L9.107.913A3.607,3.607,0,0,1,7.671,2.039,4.576,4.576,0,0,1,5.9,2.407a5.19,5.19,0,0,1-2.1-.427A5.587,5.587,0,0,1,2.1.777,5.667,5.667,0,0,1,.955-1.009,5.894,5.894,0,0,1,.547-3.2,5.912,5.912,0,0,1,.955-5.4,5.722,5.722,0,0,1,2.1-7.182a5.275,5.275,0,0,1,1.708-1.2,5.19,5.19,0,0,1,2.1-.427,4.3,4.3,0,0,1,1.708.349A4.037,4.037,0,0,1,9.107-7.4l.33-1.184ZM5.9.486A2.7,2.7,0,0,0,7.127.195,3.137,3.137,0,0,0,8.137-.6,3.708,3.708,0,0,0,8.8-1.766,4.16,4.16,0,0,0,9.049-3.2,4.18,4.18,0,0,0,8.8-4.639,3.5,3.5,0,0,0,8.137-5.8a3.2,3.2,0,0,0-1.009-.8A2.7,2.7,0,0,0,5.9-6.891,2.7,2.7,0,0,0,4.682-6.6a3.152,3.152,0,0,0-1.009.8,3.628,3.628,0,0,0-.679,1.165A4.412,4.412,0,0,0,2.76-3.2a4.391,4.391,0,0,0,.233,1.436A3.85,3.85,0,0,0,3.672-.6a3.086,3.086,0,0,0,1.009.8A2.7,2.7,0,0,0,5.9.486Zm0,0" transform="translate(-0.547 8.812)" fill="#fff"/>
        </g>
      </g>
      <g id="Group_281" data-name="Group 281" transform="translate(249.228 184.611)">
        <g id="Group_280" data-name="Group 280">
          <path id="Path_593" data-name="Path 593" d="M6.018,2.407a5.19,5.19,0,0,1-2.1-.427A5.587,5.587,0,0,1,2.213.777,5.667,5.667,0,0,1,1.068-1.009,5.629,5.629,0,0,1,.641-3.2,5.646,5.646,0,0,1,1.068-5.4,5.722,5.722,0,0,1,2.213-7.182a5.275,5.275,0,0,1,1.708-1.2,5.19,5.19,0,0,1,2.1-.427,4.994,4.994,0,0,1,2.388.582,5.236,5.236,0,0,1,1.844,1.572L8.716-5.474A3.3,3.3,0,0,0,7.59-6.483a3.06,3.06,0,0,0-1.456-.369,2.883,2.883,0,0,0-1.281.291A3.26,3.26,0,0,0,3.8-5.8a3.712,3.712,0,0,0-.718,1.165A4.068,4.068,0,0,0,2.834-3.2a4.049,4.049,0,0,0,.252,1.436A3.947,3.947,0,0,0,3.8-.6a3.232,3.232,0,0,0,1.048.8A2.883,2.883,0,0,0,6.134.486,2.771,2.771,0,0,0,7.706.02,3.781,3.781,0,0,0,8.871-1.242l1.475,1.3A5.2,5.2,0,0,1,8.5,1.767,5.015,5.015,0,0,1,6.018,2.407Zm0,0" transform="translate(-0.641 8.812)" fill="#fff"/>
        </g>
      </g>
      <g id="Group_283" data-name="Group 283" transform="translate(261.151 179.234)">
        <g id="Group_282" data-name="Group 282" transform="translate(0 0)">
          <path id="Path_594" data-name="Path 594" d="M3.268,3.185H1.094V-13.141H3.268V-3.124L7.48-7.531h2.679L6.044-3.2,10.47,3.185H8L4.627-1.727,3.268-.309Zm0,0" transform="translate(-1.094 13.141)" fill="#fff"/>
        </g>
      </g>
      <g id="Group_285" data-name="Group 285" transform="translate(272.488 179.7)">
        <g id="Group_284" data-name="Group 284" transform="translate(0 0)">
          <path id="Path_595" data-name="Path 595" d="M1.646-.575,1.355-12.766H3.878L3.626-.575Zm.99,3.9a1.408,1.408,0,0,1-1.009-.408,1.348,1.348,0,0,1-.408-.99,1.348,1.348,0,0,1,.408-.99A1.408,1.408,0,0,1,2.636.531a1.29,1.29,0,0,1,.971.408,1.348,1.348,0,0,1,.408.99,1.348,1.348,0,0,1-.408.99A1.29,1.29,0,0,1,2.636,3.327Zm0,0" transform="translate(-1.219 12.766)" fill="#fff"/>
        </g>
      </g>
    </g>
  </g>
</svg>
