<svg xmlns="http://www.w3.org/2000/svg" xmlns:xlink="http://www.w3.org/1999/xlink" width="412" height="847" viewBox="0 0 412 847">
  <defs>
    <radialGradient id="radial-gradient" cx="0.5" cy="0.5" r="0.5" gradientUnits="objectBoundingBox">
      <stop offset="0" stop-color="#f6a0ac"/>
      <stop offset="1" stop-color="#7b5056"/>
    </radialGradient>
    <radialGradient id="radial-gradient-2" cx="0.5" cy="0.5" r="0.5" gradientUnits="objectBoundingBox">
      <stop offset="0" stop-color="#70a9bf"/>
      <stop offset="1" stop-color="#385560"/>
    </radialGradient>
    <clipPath id="clip-Register">
      <rect width="412" height="847"/>
    </clipPath>
  </defs>
  <g id="Register" clip-path="url(#clip-Register)">
    <rect width="412" height="847" fill="#fff"/>
    <ellipse id="Ellipse_27" data-name="Ellipse 27" cx="111.5" cy="114.5" rx="111.5" ry="114.5" transform="translate(153 12)" fill="url(#radial-gradient)"/>
    <circle id="Ellipse_28" data-name="Ellipse 28" cx="85.5" cy="85.5" r="85.5" transform="translate(35 41)" fill="url(#radial-gradient-2)"/>
    <g id="reg_text" transform="translate(19.961 -41.531)">
      <g id="Group_15" data-name="Group 15" transform="translate(31.169 158.623)">
        <g id="Group_13" data-name="Group 13" transform="translate(0 0)">
          <path id="Path_25" data-name="Path 25" d="M17.981-42.871c-.2-.085-.39-.17-.584-.251q-.252-.081-.591-.163a2.8,2.8,0,0,0-.706-.088,6.253,6.253,0,0,0-2.254.4,5.786,5.786,0,0,0-1.792,1.059,5.051,5.051,0,0,0-1.188,1.568,4.28,4.28,0,0,0-.435,1.894L10.384-26.6H6.344V-46.585H9.555l.828,2.213a6.116,6.116,0,0,1,2.193-1.942,7.1,7.1,0,0,1,3.4-.733,14.252,14.252,0,0,1,3.042.38Zm0,0" transform="translate(-6.344 47.047)" fill="#fff"/>
        </g>
        <g id="Group_14" data-name="Group 14" transform="translate(14.39 0)">
          <path id="Path_26" data-name="Path 26" d="M13.6-26.1a10.223,10.223,0,0,1-4.074-.815,10.483,10.483,0,0,1-3.313-2.234A10.422,10.422,0,0,1,3.98-32.483a10.41,10.41,0,0,1-.808-4.087,10.866,10.866,0,0,1,.767-4.087A10.854,10.854,0,0,1,6.024-44a9.775,9.775,0,0,1,3.069-2.234,8.792,8.792,0,0,1,3.755-.815,9.824,9.824,0,0,1,3.775.713,7.7,7.7,0,0,1,3,2.213A10.608,10.608,0,0,1,21.606-40.3a18.912,18.912,0,0,1,.713,5.527H7.47a6.747,6.747,0,0,0,.917,2.023,7.256,7.256,0,0,0,1.48,1.63,6.432,6.432,0,0,0,1.915,1.059,6.685,6.685,0,0,0,2.234.373,7.314,7.314,0,0,0,2.94-.584,7.32,7.32,0,0,0,2.315-1.541l2.505,2.505A10.868,10.868,0,0,1,18.2-26.976,11.869,11.869,0,0,1,13.6-26.1Zm-.754-17.273a4.423,4.423,0,0,0-1.813.38,5.853,5.853,0,0,0-1.589,1.039A6.431,6.431,0,0,0,8.2-40.366a7.307,7.307,0,0,0-.774,2H17.98a6.322,6.322,0,0,0-.462-1.915,4.932,4.932,0,0,0-1.046-1.6,4.867,4.867,0,0,0-1.562-1.086A5.026,5.026,0,0,0,12.847-43.374Zm0,0" transform="translate(-3.172 47.047)" fill="#fff"/>
        </g>
      </g>
      <g id="Group_17" data-name="Group 17" transform="translate(68.083 158.623)">
        <g id="Group_16" data-name="Group 16" transform="translate(0 0)">
          <path id="Path_27" data-name="Path 27" d="M13.76-27.6a9.384,9.384,0,0,1-3.836-.774A9.489,9.489,0,0,1,6.875-30.5a10.1,10.1,0,0,1-2.023-3.13,9.831,9.831,0,0,1-.727-3.775,9.686,9.686,0,0,1,.727-3.755,9.6,9.6,0,0,1,2.023-3.062,9.5,9.5,0,0,1,3.049-2.071,9.6,9.6,0,0,1,3.836-.754,9.553,9.553,0,0,1,3.633.631A8.134,8.134,0,0,1,20.1-44.623l.835-1.962h3.171v5.344q0,1.752.02,4.379t.02,6.382q0,1.25-.081,2.438a13.594,13.594,0,0,1-.353,2.295,9.779,9.779,0,0,1-.794,2.125,9.083,9.083,0,0,1-1.4,1.983,8.387,8.387,0,0,1-3.775,2.356,16.045,16.045,0,0,1-4.441.6,13.8,13.8,0,0,1-3.775-.5,13.364,13.364,0,0,1-3.191-1.331v-4.508a5.779,5.779,0,0,0,2.607,1.962,10.2,10.2,0,0,0,4.026.754,9.389,9.389,0,0,0,2.791-.4,6.233,6.233,0,0,0,2.254-1.209,5.735,5.735,0,0,0,1.521-2.1,7.69,7.69,0,0,0,.564-3.089V-29.9a6.839,6.839,0,0,1-1.229.876,10.252,10.252,0,0,1-1.582.726,12.39,12.39,0,0,1-1.779.5A8.589,8.589,0,0,1,13.76-27.6Zm.38-15.773a5.811,5.811,0,0,0-2.295.462,5.866,5.866,0,0,0-1.9,1.27,5.958,5.958,0,0,0-1.276,1.9,5.945,5.945,0,0,0-.455,2.336,6.119,6.119,0,0,0,.455,2.356,5.882,5.882,0,0,0,1.276,1.922,6.266,6.266,0,0,0,1.9,1.29,5.572,5.572,0,0,0,2.295.482,6.94,6.94,0,0,0,2.288-.373,5.217,5.217,0,0,0,1.881-1.127,5.268,5.268,0,0,0,1.249-1.881,7.019,7.019,0,0,0,.462-2.668,7.456,7.456,0,0,0-.462-2.777,4.812,4.812,0,0,0-1.249-1.854,4.742,4.742,0,0,0-1.881-1.025A8.241,8.241,0,0,0,14.14-43.374Zm0,0" transform="translate(-4.125 47.047)" fill="#fff"/>
        </g>
      </g>
      <g id="Group_19" data-name="Group 19" transform="translate(92.866 149.531)">
        <g id="Group_18" data-name="Group 18" transform="translate(0 0)">
          <path id="Path_28" data-name="Path 28" d="M9.052-38.433H5.006V-58.416H9ZM7.009-62.754a2.476,2.476,0,0,1-1.84-.767,2.578,2.578,0,0,1-.747-1.86,2.492,2.492,0,0,1,.747-1.833,2.5,2.5,0,0,1,1.84-.754,2.475,2.475,0,0,1,1.826.754,2.484,2.484,0,0,1,.754,1.833,2.57,2.57,0,0,1-.754,1.86A2.449,2.449,0,0,1,7.009-62.754Zm0,0" transform="translate(-4.422 67.969)" fill="#fff"/>
        </g>
      </g>
      <g id="Group_21" data-name="Group 21" transform="translate(101.043 158.752)">
        <g id="Group_20" data-name="Group 20" transform="translate(0)">
          <path id="Path_29" data-name="Path 29" d="M13.378-30.6a4.62,4.62,0,0,0,.665-.754,1.623,1.623,0,0,0,.292-.957,1.49,1.49,0,0,0-.482-1.127,4.07,4.07,0,0,0-1.168-.774,7.158,7.158,0,0,0-1.439-.475q-.749-.168-1.243-.3A19.661,19.661,0,0,1,7.41-35.8a8.749,8.749,0,0,1-2.1-1.168A5.327,5.327,0,0,1,3.886-38.6a4.554,4.554,0,0,1-.516-2.234A4.616,4.616,0,0,1,3.954-43.1a6.51,6.51,0,0,1,1.562-1.881A7.572,7.572,0,0,1,7.8-46.268a8.046,8.046,0,0,1,2.784-.482,8.063,8.063,0,0,1,2.458.373,7.875,7.875,0,0,1,2.1,1.025,6.261,6.261,0,0,1,1.589,1.562,5.174,5.174,0,0,1,.856,2.044l-3.633.876a3.033,3.033,0,0,0-1.086-1.663,3.537,3.537,0,0,0-2.288-.672,3.976,3.976,0,0,0-1.046.149,3.57,3.57,0,0,0-1,.435,2.88,2.88,0,0,0-.767.713,1.545,1.545,0,0,0-.312.957,1.507,1.507,0,0,0,.353,1,2.9,2.9,0,0,0,.855.686,5.372,5.372,0,0,0,1.086.441q.583.163,1.08.285a24.378,24.378,0,0,1,3.673,1.168,9.052,9.052,0,0,1,2.336,1.378,4.254,4.254,0,0,1,1.229,1.65,5.406,5.406,0,0,1,.36,2.023,5.306,5.306,0,0,1-.611,2.5,6.3,6.3,0,0,1-1.67,2.023,7.873,7.873,0,0,1-2.539,1.338,10.268,10.268,0,0,1-3.191.482,8.5,8.5,0,0,1-4.61-1.27,6.282,6.282,0,0,1-2.729-3.408l3.415-1.541A3.929,3.929,0,0,0,8.2-30.21a5.237,5.237,0,0,0,2.383.523A4.281,4.281,0,0,0,13.378-30.6Zm0,0" transform="translate(-3.078 46.75)" fill="#fff"/>
        </g>
      </g>
      <g id="Group_24" data-name="Group 24" transform="translate(118.519 153.748)">
        <g id="Group_22" data-name="Group 22" transform="translate(0 0)">
          <path id="Path_30" data-name="Path 30" d="M14.325-32.987a13.524,13.524,0,0,1-3.381.706,6.081,6.081,0,0,1-3.008-.475A4.7,4.7,0,0,1,5.77-34.882a9.019,9.019,0,0,1-.835-4.278V-49.3H2.016v-2.8l2.92-.835v-5.337H8.982v5.337h5.425V-49.3H8.982v10.762a4.4,4.4,0,0,0,.231,1.582,1.643,1.643,0,0,0,.767.876,2.984,2.984,0,0,0,1.419.292,17.012,17.012,0,0,0,2.132-.163Zm0,0" transform="translate(-2.016 58.266)" fill="#fff"/>
        </g>
        <g id="Group_23" data-name="Group 23" transform="translate(14.769 4.875)">
          <path id="Path_31" data-name="Path 31" d="M13.6-26.1a10.223,10.223,0,0,1-4.074-.815,10.483,10.483,0,0,1-3.313-2.234A10.422,10.422,0,0,1,3.98-32.483a10.41,10.41,0,0,1-.808-4.087,10.866,10.866,0,0,1,.767-4.087A10.854,10.854,0,0,1,6.024-44a9.775,9.775,0,0,1,3.069-2.234,8.792,8.792,0,0,1,3.755-.815,9.824,9.824,0,0,1,3.775.713,7.7,7.7,0,0,1,3,2.213A10.608,10.608,0,0,1,21.606-40.3a18.912,18.912,0,0,1,.713,5.527H7.47a6.747,6.747,0,0,0,.917,2.023,7.256,7.256,0,0,0,1.48,1.63,6.432,6.432,0,0,0,1.915,1.059,6.685,6.685,0,0,0,2.234.373,7.314,7.314,0,0,0,2.94-.584,7.32,7.32,0,0,0,2.315-1.541l2.505,2.505A10.868,10.868,0,0,1,18.2-26.976,11.869,11.869,0,0,1,13.6-26.1Zm-.754-17.273a4.423,4.423,0,0,0-1.813.38,5.853,5.853,0,0,0-1.589,1.039A6.431,6.431,0,0,0,8.2-40.366a7.307,7.307,0,0,0-.774,2H17.98a6.322,6.322,0,0,0-.462-1.915,4.932,4.932,0,0,0-1.046-1.6,4.867,4.867,0,0,0-1.562-1.086A5.026,5.026,0,0,0,12.847-43.374Zm0,0" transform="translate(-3.172 47.047)" fill="#fff"/>
        </g>
      </g>
      <g id="Group_26" data-name="Group 26" transform="translate(156.776 158.623)">
        <g id="Group_25" data-name="Group 25" transform="translate(0 0)">
          <path id="Path_32" data-name="Path 32" d="M17.981-42.871c-.2-.085-.39-.17-.584-.251q-.252-.081-.591-.163a2.8,2.8,0,0,0-.706-.088,6.253,6.253,0,0,0-2.254.4,5.786,5.786,0,0,0-1.792,1.059,5.051,5.051,0,0,0-1.188,1.568,4.28,4.28,0,0,0-.435,1.894L10.384-26.6H6.344V-46.585H9.555l.828,2.213a6.116,6.116,0,0,1,2.193-1.942,7.1,7.1,0,0,1,3.4-.733,14.252,14.252,0,0,1,3.042.38Zm0,0" transform="translate(-6.344 47.047)" fill="#fff"/>
        </g>
      </g>
    </g>
    <g id="reg_logo" transform="translate(-80.767 42.132)">
      <path id="Path_47" data-name="Path 47" d="M663.817,124.769H619.679a9.383,9.383,0,0,0-9.153,7.319l-22.3,98.922a7.583,7.583,0,0,0,7.024,9.242l45.374,2.235a10.019,10.019,0,0,0,10.351-8.223l12.651-69.939.941.269,2.42-13.256-.969-.242,3.531-19.523a5.777,5.777,0,0,0-5.732-6.805Z" transform="translate(-272.172 -124.769)" fill="#333"/>
      <path id="Path_48" data-name="Path 48" d="M645.365,136.395h-5.152a6.484,6.484,0,0,0-6.335,5.1l-21.407,98.115a4.018,4.018,0,0,0,3.663,4.866l45.227,2.964a5.2,5.2,0,0,0,5.461-4.27L685.089,141.76a4.558,4.558,0,0,0-4.486-5.366h-4.888a2.151,2.151,0,0,0-2.077,1.592h0a1.9,1.9,0,0,1-1.834,1.405H648.6a3.246,3.246,0,0,1-3.237-3Z" transform="translate(-292.047 -134.262)" fill="#fff"/>
      <path id="Path_49" data-name="Path 49" d="M528.288,400.891l3.988,7.895,11.924,5.421c1.273,2.152,5.32,2.317,5.614.925.33-1.561-4.914-4.074-4.914-4.074l-9.973-6.746-.873-5.807Z" transform="translate(-223.382 -348.291)" fill="#a0616a"/>
      <path id="Path_50" data-name="Path 50" d="M360.479,575.559l-.735,5.883,4.265.294.441-6.178Z" transform="translate(-55.103 -469.98)" fill="#a0616a"/>
      <path id="Path_51" data-name="Path 51" d="M522.17,715.119a11.572,11.572,0,0,1-1.052-1.287c-.611-.846-1.154,3.493-1.154,3.493a7.872,7.872,0,0,0-.441,2.647c.147.882,3.53.882,4.118.735a27.791,27.791,0,0,1,3.53,0h4.412c3.824-1.765,0-2.942,0-2.942-1.177-.147-5.148-3.824-5.148-3.824l-.883-1.618c-.588-.147-1.177,2.059-1.177,2.059Z" transform="translate(-216.205 -604.539)" fill="#2f2e41"/>
      <path id="Path_52" data-name="Path 52" d="M300.343,575.96l-.736,5.883,4.265.294.441-6.178Z" transform="translate(-5.997 -470.308)" fill="#a0616a"/>
      <path id="Path_53" data-name="Path 53" d="M462.033,715.52a11.5,11.5,0,0,1-1.052-1.287c-.611-.846-1.154,3.494-1.154,3.494a6.822,6.822,0,0,0-.441,2.5c.147.883,3.53.883,4.118.735a23.943,23.943,0,0,1,3.53.147h4.413c3.824-1.765,0-2.942,0-2.942-1.177-.147-5.148-3.824-5.148-3.824l-.883-1.618c-.588-.147-1.177,2.059-1.177,2.059Z" transform="translate(-167.099 -604.867)" fill="#2f2e41"/>
      <path id="Path_54" data-name="Path 54" d="M471.641,492.4c-.588.735-.294,3.236-.294,3.236s-1.03,8.09-.588,8.825-.294,1.324-.735,2.353a23.484,23.484,0,0,0-.883,3.53c-2.5,2.059-2.353,11.473-2.353,11.473l-.882,8.384c.294.883,4.412,1.03,5,.883s2.353-13.385,2.353-13.385l3.971-7.5s-.294,20-.294,20.886,3.971.441,4.854.441.883-14.708.883-14.708l.883-3.824,4.707-17.5v-2.059l-.735-1.03S472.23,491.669,471.641,492.4Z" transform="translate(-172.442 -424.7)" fill="#2f2e41"/>
      <circle id="Ellipse_15" data-name="Ellipse 15" cx="4.56" cy="4.56" r="4.56" transform="translate(301.111 25.197)" fill="#a0616a"/>
      <path id="Path_55" data-name="Path 55" d="M518.04,298.615c-.924,2.058-.377,4.933,1.471,8.09l-7.5-3.53,1.177-1.03-.294-2.942Z" transform="translate(-210.089 -266.725)" fill="#a0616a"/>
      <path id="Path_56" data-name="Path 56" d="M493.16,319.036a4.707,4.707,0,0,1,1.907,2.749,26.047,26.047,0,0,1,1.12,6.224l.356,6.324,4.413,16.768c-3.824,3.236-6.031,2.5-11.178-.147s-5.736.883-5.736.883-.441-.147,0-.588,0,0-.441-.441,0,0,.147-.441,0-.147-.147-.294.588-1.471.588-1.471l-1.177-11.031-1.471-15.591c1.765-2.206,6.766-4.118,6.766-4.118l4.56,3.236c1.471.588.294-1.765.294-1.765Z" transform="translate(-185.21 -282.439)" fill="#6c63ff"/>
      <path id="Path_57" data-name="Path 57" d="M465.691,391.226l-.588,8.825,7.5,10.737c0,2.5,1.324,3.089,1.324,3.089a19.433,19.433,0,0,0,1.324-2.5,2.855,2.855,0,0,0-.441-2.942l-5.148-10.884,2.206-5.442Z" transform="translate(-171.787 -342.348)" fill="#a0616a"/>
      <path id="Path_58" data-name="Path 58" d="M468.847,339.361c-2.5.883-2.942,10.443-2.942,10.443,2.942-1.618,6.472,1.03,6.472,1.03s.735-2.5,1.618-5.736a5.621,5.621,0,0,0-1.177-5.295A4.005,4.005,0,0,0,468.847,339.361Z" transform="translate(-172.443 -299.749)" fill="#6c63ff"/>
      <path id="Path_59" data-name="Path 59" d="M506.5,260.174c.581-.464,1.372.38,1.372.38l.464-4.179a16.567,16.567,0,0,0,4.76-.116c1.857-.464,2.148,1.683,2.148,1.683a14.907,14.907,0,0,0,.058-2.612c-.116-1.045-1.625-2.09-4.3-2.786s-4.063,2.322-4.063,2.322C505.083,255.794,505.917,260.639,506.5,260.174Z" transform="translate(-205.018 -229.02)" fill="#2f2e41"/>
      <path id="Path_61" data-name="Path 61" d="M710.517,529.535a.183.183,0,0,0-.178.142l-.426,1.826a.183.183,0,0,0,.166.225l24.073,1.711a.185.185,0,0,0,.193-.148l.41-2.113a.183.183,0,0,0-.169-.218l-24.056-1.425Z" transform="translate(-371.686 -455.286)" fill="#333"/>
      <path id="Path_62" data-name="Path 62" d="M734.978,567.18a.184.184,0,0,0,.193-.139l.522-2.117a.184.184,0,0,0-.166-.227l-30.741-2.15a.182.182,0,0,0-.189.131l-.542,1.83a.183.183,0,0,0,.161.235Z" transform="translate(-366.9 -482.241)" fill="#333"/>
      <path id="Path_63" data-name="Path 63" d="M725.978,604.18a.183.183,0,0,0,.193-.139l.522-2.117a.184.184,0,0,0-.165-.227l-30.742-2.15a.181.181,0,0,0-.189.131l-.542,1.83a.183.183,0,0,0,.161.235Z" transform="translate(-359.551 -512.454)" fill="#333"/>
    </g>
    <g id="signuptoday" transform="translate(77.844 -19.356)">
      <g id="Group_287" data-name="Group 287" transform="translate(128.522 179.479)">
        <g id="Group_286" data-name="Group 286">
          <path id="Path_596" data-name="Path 596" d="M11.347-1.674A4.127,4.127,0,0,1,10.952.132,4.216,4.216,0,0,1,9.824,1.6a5.775,5.775,0,0,1-3.836,1.26,7.187,7.187,0,0,1-3.31-.752A4.926,4.926,0,0,1,.516.094l1.937-1A2.837,2.837,0,0,0,3.825.32,5.282,5.282,0,0,0,5.988.733c2.092,0,3.14-.8,3.14-2.407a1.637,1.637,0,0,0-.169-.771,2.081,2.081,0,0,0-.489-.621A7.265,7.265,0,0,0,5.687-4.231a13.329,13.329,0,0,1-2.069-.658,5.28,5.28,0,0,1-1.41-.884A3.583,3.583,0,0,1,.854-8.688,4.089,4.089,0,0,1,1.211-10.4a4.109,4.109,0,0,1,1-1.373,4.449,4.449,0,0,1,1.58-.865,6.3,6.3,0,0,1,1.974-.3,7.047,7.047,0,0,1,2.915.6,4.548,4.548,0,0,1,2.031,1.711L8.959-9.534a3.466,3.466,0,0,0-1.467-1.072,4.712,4.712,0,0,0-1.73-.32,3.057,3.057,0,0,0-1.185.226,3.489,3.489,0,0,0-.921.508,1.656,1.656,0,0,0-.451.639,2.411,2.411,0,0,0-.132.809,1.842,1.842,0,0,0,.094.583,1.555,1.555,0,0,0,.414.6,3.317,3.317,0,0,0,.94.621,11.5,11.5,0,0,0,1.73.564,15.22,15.22,0,0,1,2.181.7,5.758,5.758,0,0,1,1.486.9A3.82,3.82,0,0,1,11.347-1.674Zm0,0" transform="translate(-0.516 12.937)" fill="#fff"/>
        </g>
      </g>
      <g id="Group_289" data-name="Group 289" transform="translate(141.462 179.704)">
        <g id="Group_288" data-name="Group 288">
          <path id="Path_597" data-name="Path 597" d="M3.235,2.595H1.129V-7.786H3.216ZM2.163-10.042a1.306,1.306,0,0,1-.959-.395A1.327,1.327,0,0,1,.828-11.4a1.327,1.327,0,0,1,.376-.959,1.306,1.306,0,0,1,.959-.395,1.306,1.306,0,0,1,.959.395,1.306,1.306,0,0,1,.395.959,1.306,1.306,0,0,1-.395.959A1.306,1.306,0,0,1,2.163-10.042Zm0,0" transform="translate(-0.828 12.75)" fill="#fff"/>
        </g>
      </g>
      <g id="Group_291" data-name="Group 291" transform="translate(145.955 184.443)">
        <g id="Group_290" data-name="Group 290">
          <path id="Path_598" data-name="Path 598" d="M5.783,1.267A5.038,5.038,0,0,1,3.771.872,4.924,4.924,0,0,1,2.192-.219,5.285,5.285,0,0,1,1.157-1.855,5.049,5.049,0,0,1,.781-3.81a4.983,4.983,0,0,1,.376-1.956,4.922,4.922,0,0,1,1.034-1.58,4.8,4.8,0,0,1,1.58-1.072,5.038,5.038,0,0,1,2.012-.395,4.977,4.977,0,0,1,1.862.32,4.416,4.416,0,0,1,1.429.921l.432-1.015h1.636v5.058c.009.9.019,2.007.019,3.31,0,.428-.014.846-.038,1.26a6.362,6.362,0,0,1-.188,1.185,4.513,4.513,0,0,1-.414,1.109A4.436,4.436,0,0,1,9.807,4.37,4.439,4.439,0,0,1,7.833,5.592a8.2,8.2,0,0,1-2.294.32,7.122,7.122,0,0,1-1.956-.263,7.236,7.236,0,0,1-1.655-.7V2.621A3.047,3.047,0,0,0,3.282,3.636a5.23,5.23,0,0,0,2.087.395,4.991,4.991,0,0,0,1.448-.207,3.193,3.193,0,0,0,1.166-.639,2.74,2.74,0,0,0,.79-1.091,3.958,3.958,0,0,0,.3-1.6V.082a3.953,3.953,0,0,1-.639.47,6.105,6.105,0,0,1-.827.376,7,7,0,0,1-.921.244A4.4,4.4,0,0,1,5.783,1.267Zm.188-8.18a3,3,0,0,0-1.185.244,2.948,2.948,0,0,0-1,.658,3.063,3.063,0,0,0-.658.978A3.02,3.02,0,0,0,2.887-3.81a3.085,3.085,0,0,0,.244,1.222,3.256,3.256,0,0,0,.658,1,3.59,3.59,0,0,0,1,.677A2.922,2.922,0,0,0,5.971-.67,3.678,3.678,0,0,0,7.156-.858a2.779,2.779,0,0,0,.978-.6,2.679,2.679,0,0,0,.639-.978A3.581,3.581,0,0,0,9.018-3.81a3.919,3.919,0,0,0-.244-1.448,2.358,2.358,0,0,0-.639-.959,2.38,2.38,0,0,0-.978-.527A4.1,4.1,0,0,0,5.971-6.913Zm0,0" transform="translate(-0.781 8.812)" fill="#fff"/>
        </g>
      </g>
      <g id="Group_293" data-name="Group 293" transform="translate(158.983 184.443)">
        <g id="Group_292" data-name="Group 292">
          <path id="Path_599" data-name="Path 599" d="M3.075,1.793H.969V-8.587H2.642l.432.921a4.248,4.248,0,0,1,1.26-.827,3.977,3.977,0,0,1,1.6-.32,5.635,5.635,0,0,1,1.279.169,3.447,3.447,0,0,1,1.335.658A3.617,3.617,0,0,1,9.581-6.669a4.747,4.747,0,0,1,.433,2.181V1.793H8.02v-6.3a2.733,2.733,0,0,0-.207-1.128,2.075,2.075,0,0,0-.545-.752A1.974,1.974,0,0,0,6.5-6.782a2.943,2.943,0,0,0-.865-.132,3.036,3.036,0,0,0-.809.132A2.688,2.688,0,0,0,4-6.349a2.624,2.624,0,0,0-.658.733,2.049,2.049,0,0,0-.263,1.091Zm0,0" transform="translate(-0.969 8.812)" fill="#fff"/>
        </g>
      </g>
      <g id="Group_295" data-name="Group 295" transform="translate(169.386 195.049)">
        <g id="Group_294" data-name="Group 294">
          <path id="Path_600" data-name="Path 600" fill="#fff"/>
        </g>
      </g>
      <g id="Group_297" data-name="Group 297" transform="translate(176.318 179.686)">
        <g id="Group_296" data-name="Group 296" transform="translate(0 0)">
          <path id="Path_601" data-name="Path 601" d="M12.289-2.837a5.419,5.419,0,0,1-.451,2.2,6.1,6.1,0,0,1-1.2,1.786A5.613,5.613,0,0,1,8.866,2.372a5.355,5.355,0,0,1-2.2.451,5.3,5.3,0,0,1-2.181-.451A5.805,5.805,0,0,1,2.7,1.15,6.006,6.006,0,0,1,1.5-.637a5.567,5.567,0,0,1-.433-2.2v-9.929H3.319v9.929A3.655,3.655,0,0,0,3.564-1.5,3.772,3.772,0,0,0,4.278-.392,3.649,3.649,0,0,0,5.35.36,3.139,3.139,0,0,0,6.666.642,3.039,3.039,0,0,0,7.964.36,3.419,3.419,0,0,0,9.036-.392,3.87,3.87,0,0,0,9.75-1.5a3.485,3.485,0,0,0,.263-1.335v-9.929h2.275Zm0,0" transform="translate(-1.063 12.766)" fill="#fff"/>
        </g>
      </g>
      <g id="Group_299" data-name="Group 299" transform="translate(189.996 184.443)">
        <g id="Group_298" data-name="Group 298" transform="translate(0)">
          <path id="Path_602" data-name="Path 602" d="M1.016,6.081V-8.587H2.67L3.1-7.5a4.479,4.479,0,0,1,1.448-.978,4.673,4.673,0,0,1,1.824-.338A4.922,4.922,0,0,1,8.387-8.4a4.669,4.669,0,0,1,1.58,1.166A5.324,5.324,0,0,1,11.02-5.5,6.016,6.016,0,0,1,11.4-3.378a6,6,0,0,1-.376,2.125A5.275,5.275,0,0,1,9.967.477a4.932,4.932,0,0,1-1.58,1.166,4.922,4.922,0,0,1-2.012.414A4.6,4.6,0,0,1,4.513,1.7,4.273,4.273,0,0,1,3.1.665V6.081ZM6.206-6.913a3.451,3.451,0,0,0-1.185.207,2.638,2.638,0,0,0-1,.658,3.1,3.1,0,0,0-.658,1.091,4.534,4.534,0,0,0-.244,1.58,4.856,4.856,0,0,0,.244,1.655A3.026,3.026,0,0,0,4.024-.614a2.784,2.784,0,0,0,1,.621A3.678,3.678,0,0,0,6.206.195,2.615,2.615,0,0,0,7.39-.087a3.039,3.039,0,0,0,.978-.771,3.592,3.592,0,0,0,.639-1.128,4.03,4.03,0,0,0,.244-1.392A4.05,4.05,0,0,0,9.008-4.77,3.394,3.394,0,0,0,8.368-5.9a3.058,3.058,0,0,0-.978-.733A2.615,2.615,0,0,0,6.206-6.913Zm0,0" transform="translate(-1.016 8.812)" fill="#fff"/>
        </g>
      </g>
      <g id="Group_301" data-name="Group 301" transform="translate(200.992 195.049)">
        <g id="Group_300" data-name="Group 300">
          <path id="Path_603" data-name="Path 603" fill="#fff"/>
        </g>
      </g>
      <g id="Group_303" data-name="Group 303" transform="translate(206.759 179.686)">
        <g id="Group_302" data-name="Group 302" transform="translate(0 0)">
          <path id="Path_604" data-name="Path 604" d="M4.25-10.716H.094v-2.05H10.681v2.05H6.506V2.6H4.25Zm0,0" transform="translate(-0.094 12.766)" fill="#fff"/>
        </g>
      </g>
      <g id="Group_305" data-name="Group 305" transform="translate(218.518 184.443)">
        <g id="Group_304" data-name="Group 304">
          <path id="Path_605" data-name="Path 605" d="M5.659,2.057a4.987,4.987,0,0,1-2.012-.414A5.412,5.412,0,0,1,1.992.477,5.49,5.49,0,0,1,.882-1.253,5.453,5.453,0,0,1,.469-3.378,5.47,5.47,0,0,1,.882-5.5a5.543,5.543,0,0,1,1.109-1.73A5.11,5.11,0,0,1,3.647-8.4a4.987,4.987,0,0,1,2.012-.414A5,5,0,0,1,7.671-8.4,4.917,4.917,0,0,1,9.326-7.233,5.509,5.509,0,0,1,10.454-5.5a5.557,5.557,0,0,1,.414,2.125,5.539,5.539,0,0,1-.414,2.125A5.455,5.455,0,0,1,9.326.477,5.2,5.2,0,0,1,7.671,1.643,5,5,0,0,1,5.659,2.057Zm0-8.989a2.615,2.615,0,0,0-1.185.282,3.462,3.462,0,0,0-1,.752A3.515,3.515,0,0,0,2.819-4.77a4.274,4.274,0,0,0-.226,1.392,4.254,4.254,0,0,0,.226,1.392A3.729,3.729,0,0,0,3.477-.858a3.215,3.215,0,0,0,1,.771A2.615,2.615,0,0,0,5.659.195a2.664,2.664,0,0,0,1.2-.282A3.039,3.039,0,0,0,7.84-.858,3.592,3.592,0,0,0,8.48-1.986a4.03,4.03,0,0,0,.244-1.392A4.05,4.05,0,0,0,8.48-4.77,3.394,3.394,0,0,0,7.84-5.9a3.259,3.259,0,0,0-.978-.752A2.664,2.664,0,0,0,5.659-6.932Zm0,0" transform="translate(-0.469 8.812)" fill="#fff"/>
        </g>
      </g>
      <g id="Group_307" data-name="Group 307" transform="translate(230.144 179.234)">
        <g id="Group_306" data-name="Group 306" transform="translate(0 0)">
          <path id="Path_606" data-name="Path 606" d="M11.005-13.141V2.674H9.332L8.9,1.583a4.481,4.481,0,0,1-1.429,1,4.49,4.49,0,0,1-1.843.357,4.849,4.849,0,0,1-1.993-.414,5.146,5.146,0,0,1-1.58-1.166A5.613,5.613,0,0,1,1-.372,5.894,5.894,0,0,1,.625-2.5,5.912,5.912,0,0,1,1-4.622a5.669,5.669,0,0,1,1.053-1.73,4.86,4.86,0,0,1,1.58-1.166,4.85,4.85,0,0,1,1.993-.414,4.6,4.6,0,0,1,1.88.357,4.219,4.219,0,0,1,1.392,1v-6.563ZM5.815,1.076A3.27,3.27,0,0,0,7,.869,2.655,2.655,0,0,0,7.978.192,2.965,2.965,0,0,0,8.636-.918,4.724,4.724,0,0,0,8.88-2.5a4.994,4.994,0,0,0-.244-1.655,2.651,2.651,0,0,0-.658-1.091A2.236,2.236,0,0,0,7-5.844a3.724,3.724,0,0,0-1.185-.188,2.65,2.65,0,0,0-1.2.282,3.007,3.007,0,0,0-.978.733,3.756,3.756,0,0,0-.639,1.128A3.941,3.941,0,0,0,2.75-2.5a3.922,3.922,0,0,0,.244,1.392A4,4,0,0,0,3.634.023a2.99,2.99,0,0,0,.978.771A2.65,2.65,0,0,0,5.815,1.076Zm0,0" transform="translate(-0.625 13.141)" fill="#fff"/>
        </g>
      </g>
      <g id="Group_309" data-name="Group 309" transform="translate(242.592 184.443)">
        <g id="Group_308" data-name="Group 308">
          <path id="Path_607" data-name="Path 607" d="M10.946-8.587V1.793H9.159L8.84.609A3.494,3.494,0,0,1,7.448,1.7a4.433,4.433,0,0,1-1.711.357,5.027,5.027,0,0,1-2.031-.414A5.412,5.412,0,0,1,2.051.477,5.49,5.49,0,0,1,.942-1.253,5.71,5.71,0,0,1,.547-3.378,5.727,5.727,0,0,1,.942-5.5a5.543,5.543,0,0,1,1.109-1.73A5.11,5.11,0,0,1,3.706-8.4a5.028,5.028,0,0,1,2.031-.414,4.169,4.169,0,0,1,1.655.338A3.911,3.911,0,0,1,8.84-7.44l.32-1.147ZM5.737.195A2.615,2.615,0,0,0,6.922-.087,3.039,3.039,0,0,0,7.9-.858a3.592,3.592,0,0,0,.639-1.128,4.03,4.03,0,0,0,.244-1.392A4.05,4.05,0,0,0,8.539-4.77,3.394,3.394,0,0,0,7.9-5.9a3.1,3.1,0,0,0-.978-.771,2.615,2.615,0,0,0-1.185-.282,2.615,2.615,0,0,0-1.185.282,3.053,3.053,0,0,0-.978.771A3.515,3.515,0,0,0,2.916-4.77a4.274,4.274,0,0,0-.226,1.392,4.254,4.254,0,0,0,.226,1.392A3.729,3.729,0,0,0,3.574-.858a2.99,2.99,0,0,0,.978.771A2.615,2.615,0,0,0,5.737.195Zm0,0" transform="translate(-0.547 8.812)" fill="#fff"/>
        </g>
      </g>
      <g id="Group_311" data-name="Group 311" transform="translate(254.139 184.669)">
        <g id="Group_310" data-name="Group 310">
          <path id="Path_608" data-name="Path 608" d="M4.569.589.188-8.625H2.519l3.2,6.732,3.14-6.732h2.332L4.494,5.892H2.181Zm0,0" transform="translate(-0.188 8.625)" fill="#fff"/>
        </g>
      </g>
      <g id="Group_313" data-name="Group 313" transform="translate(266.969 179.686)">
        <g id="Group_312" data-name="Group 312" transform="translate(0 0)">
          <path id="Path_609" data-name="Path 609" d="M1.632-.956,1.35-12.766H3.795L3.551-.956Zm.959,3.78a1.364,1.364,0,0,1-.978-.395,1.306,1.306,0,0,1-.395-.959A1.306,1.306,0,0,1,1.614.51,1.364,1.364,0,0,1,2.591.116a1.249,1.249,0,0,1,.94.395,1.306,1.306,0,0,1,.395.959,1.306,1.306,0,0,1-.395.959A1.249,1.249,0,0,1,2.591,2.823Zm0,0" transform="translate(-1.219 12.766)" fill="#fff"/>
        </g>
      </g>
    </g>
  </g>
</svg>
