<svg xmlns="http://www.w3.org/2000/svg" xmlns:xlink="http://www.w3.org/1999/xlink" width="412" height="847" viewBox="0 0 412 847">
  <defs>
    <linearGradient id="linear-gradient" x1="0.5" x2="0.5" y2="1" gradientUnits="objectBoundingBox">
      <stop offset="0" stop-color="#f6a0ac"/>
      <stop offset="1" stop-color="#7b5056"/>
    </linearGradient>
    <clipPath id="clip-Login">
      <rect width="412" height="847"/>
    </clipPath>
  </defs>
  <g id="Login" clip-path="url(#clip-Login)">
    <rect width="412" height="847" fill="#fff"/>
    <g id="Group_12" data-name="Group 12" transform="translate(-212 227)">
      <g id="surface1" transform="translate(316 -154)">
        <g id="Group_3" data-name="Group 3" transform="translate(0)">
          <g id="Group_2" data-name="Group 2">
            <path id="Path_20" data-name="Path 20" d="M11.42-75.875v38.219H6.344V-75.875Zm0,0" transform="translate(-6.344 75.875)" fill="#333"/>
          </g>
        </g>
        <g id="Group_5" data-name="Group 5" transform="translate(9.266 12.569)">
          <g id="Group_4" data-name="Group 4" transform="translate(0 0)">
            <path id="Path_21" data-name="Path 21" d="M15.264-24.642a11.844,11.844,0,0,1-4.9-1.023,12.545,12.545,0,0,1-3.975-2.8,13.42,13.42,0,0,1-2.7-4.187A13.342,13.342,0,0,1,2.7-37.786a13.349,13.349,0,0,1,.992-5.132,13.442,13.442,0,0,1,2.7-4.187A12.491,12.491,0,0,1,10.369-49.9a11.843,11.843,0,0,1,4.9-1.023A11.907,11.907,0,0,1,20.136-49.9,12.408,12.408,0,0,1,24.142-47.1a13.353,13.353,0,0,1,2.692,4.187,13.282,13.282,0,0,1,1,5.132,13.274,13.274,0,0,1-1,5.132,13.33,13.33,0,0,1-2.692,4.187,12.461,12.461,0,0,1-4.006,2.8A11.908,11.908,0,0,1,15.264-24.642Zm0-21.73a6.309,6.309,0,0,0-2.873.685,7.773,7.773,0,0,0-2.385,1.834,8.337,8.337,0,0,0-1.6,2.723,9.628,9.628,0,0,0-.575,3.345,9.68,9.68,0,0,0,.575,3.353,8.705,8.705,0,0,0,1.6,2.747,7.7,7.7,0,0,0,2.385,1.865,6.351,6.351,0,0,0,2.873.677,6.378,6.378,0,0,0,2.881-.677A7.376,7.376,0,0,0,20.5-31.686a9.041,9.041,0,0,0,1.574-2.747,9.728,9.728,0,0,0,.575-3.353,9.675,9.675,0,0,0-.575-3.345A8.647,8.647,0,0,0,20.5-43.854a7.445,7.445,0,0,0-2.353-1.834A6.335,6.335,0,0,0,15.264-46.373Zm0,0" transform="translate(-2.703 50.922)" fill="#333"/>
          </g>
        </g>
        <g id="Group_7" data-name="Group 7" transform="translate(37.798 12.569)">
          <g id="Group_6" data-name="Group 6" transform="translate(0 0)">
            <path id="Path_22" data-name="Path 22" d="M16.566-26.531a11.859,11.859,0,0,1-4.825-.968,11.782,11.782,0,0,1-3.817-2.668,12.591,12.591,0,0,1-2.542-3.927,12.338,12.338,0,0,1-.913-4.738,12.116,12.116,0,0,1,.913-4.707,12.037,12.037,0,0,1,2.542-3.849,11.751,11.751,0,0,1,3.817-2.589,12.115,12.115,0,0,1,4.825-.944,12.063,12.063,0,0,1,4.549.787,10.171,10.171,0,0,1,3.408,2.243l1.047-2.456h3.975v6.706q0,2.2.024,5.494t.031,8q0,1.576-.11,3.069a17.218,17.218,0,0,1-.441,2.873,12.332,12.332,0,0,1-.992,2.676A11.385,11.385,0,0,1,26.3-19.039a10.481,10.481,0,0,1-4.738,2.951,20.079,20.079,0,0,1-5.58.763,17.359,17.359,0,0,1-4.738-.63,17.072,17.072,0,0,1-4-1.676v-5.651a7.257,7.257,0,0,0,3.266,2.456,12.825,12.825,0,0,0,5.053.944,11.956,11.956,0,0,0,3.51-.5A7.878,7.878,0,0,0,21.9-21.9a7.177,7.177,0,0,0,1.913-2.644,9.625,9.625,0,0,0,.708-3.872v-1a8.406,8.406,0,0,1-1.551,1.11,13.125,13.125,0,0,1-1.991.913,16.057,16.057,0,0,1-2.219.622A10.935,10.935,0,0,1,16.566-26.531Zm.472-19.786a7.353,7.353,0,0,0-2.881.575,7.416,7.416,0,0,0-2.385,1.6,7.4,7.4,0,0,0-1.6,2.385A7.451,7.451,0,0,0,9.6-38.833a7.627,7.627,0,0,0,.575,2.959,7.289,7.289,0,0,0,1.6,2.408,7.8,7.8,0,0,0,2.385,1.629,7.068,7.068,0,0,0,2.881.6,8.71,8.71,0,0,0,2.873-.472,6.415,6.415,0,0,0,2.353-1.417,6.641,6.641,0,0,0,1.574-2.353,8.922,8.922,0,0,0,.575-3.353,9.426,9.426,0,0,0-.575-3.479,6.089,6.089,0,0,0-1.574-2.33,5.969,5.969,0,0,0-2.353-1.283A10.329,10.329,0,0,0,17.038-46.318Zm0,0" transform="translate(-4.469 50.922)" fill="#333"/>
          </g>
        </g>
        <g id="Group_9" data-name="Group 9" transform="translate(68.897 1.149)">
          <g id="Group_8" data-name="Group 8" transform="translate(0 0)">
            <path id="Path_23" data-name="Path 23" d="M10.59-36.524H5.513V-61.6h5.029ZM8.024-67.046a3.1,3.1,0,0,1-2.306-.968,3.223,3.223,0,0,1-.937-2.33,3.147,3.147,0,0,1,.937-2.306,3.135,3.135,0,0,1,2.306-.944,3.138,3.138,0,0,1,2.306.944,3.138,3.138,0,0,1,.944,2.306,3.214,3.214,0,0,1-.944,2.33A3.1,3.1,0,0,1,8.024-67.046Zm0,0" transform="translate(-4.781 73.594)" fill="#333"/>
          </g>
        </g>
        <g id="Group_11" data-name="Group 11" transform="translate(80.309 12.569)">
          <g id="Group_10" data-name="Group 10" transform="translate(0 0)">
            <path id="Path_24" data-name="Path 24" d="M10.686-25.272H5.609V-50.347h4.03l1.047,2.2a10.334,10.334,0,0,1,3.038-1.983,9.5,9.5,0,0,1,3.88-.787,13.291,13.291,0,0,1,3.077.417,8.515,8.515,0,0,1,3.227,1.574,9.009,9.009,0,0,1,2.511,3.188,11.83,11.83,0,0,1,1.023,5.289v15.182H22.625V-40.509a6.807,6.807,0,0,0-.5-2.747,4.87,4.87,0,0,0-1.307-1.8,4.805,4.805,0,0,0-1.834-.968,7.782,7.782,0,0,0-2.125-.291A6.969,6.969,0,0,0,14.952-46a6.316,6.316,0,0,0-2.015,1.023,6.311,6.311,0,0,0-1.6,1.779,4.982,4.982,0,0,0-.653,2.644Zm0,0" transform="translate(-5.609 50.922)" fill="#333"/>
          </g>
        </g>
      </g>
    </g>
    <circle id="blue3_login" cx="69" cy="69" r="69" transform="translate(376 450)" fill="#70a9bf"/>
    <circle id="blue2_login" cx="69" cy="69" r="69" transform="translate(-39 -42)" fill="#70a9bf"/>
    <circle id="blue1_login" cx="69" cy="69" r="69" transform="translate(-69 552)" fill="#70a9bf"/>
    <circle id="red3_login" cx="69" cy="69" r="69" transform="translate(-100 504)" fill="url(#linear-gradient)"/>
    <circle id="red1_login" cx="69" cy="69" r="69" transform="translate(-69)" fill="url(#linear-gradient)"/>
    <circle id="red2_login" cx="69" cy="69" r="69" transform="translate(376 28)" fill="url(#linear-gradient)"/>
    <g id="Group_27" data-name="Group 27" transform="translate(70 69)">
      <path id="Path_33" data-name="Path 33" d="M87.6,356.939l21.444-16.775-21.455,18.6-.013,1.909q-2.294-.011-4.541-.081c-.007-.433,1.816-24.278,1.738-24.709.106-.016.165-2.255.207-2.353L62.578,315.2,85,331.794l.067.491,1.33-18.526L67.144,294.788,86.554,310.5c.007-.252.919-38.289.928-38.524.006.125.424,30.27.427,30.4l18.417-12.134L87.891,304.984l-.094,16.58,17.091-16.033c-21.329,23.382-16.609,15.2-17.154,27.69L112.56,310.9,87.712,336.438Z" transform="translate(-62.493 -201.644)" fill="#70a9bf"/>
      <path id="Path_34" data-name="Path 34" d="M1083.969,602.344l6.7-9.628-6.7,10.676,0,1.1q-.717-.006-1.419-.047c0-.249.568-13.935.543-14.182.033-.009.052-1.294.065-1.351l-7-10.522,7.008,9.526.021.282.416-10.633-6.018-10.889,6.066,9.02c0-.145.287-21.977.29-22.112,0,.072.132,17.374.133,17.447l5.756-6.964-5.762,8.461-.03,9.517,5.341-9.2c-6.666,13.421-5.19,8.724-5.361,15.893l7.758-12.814L1084,590.577Z" transform="translate(-819.108 -445.321)" fill="#f6a0ac"/>
      <ellipse id="Ellipse_13" data-name="Ellipse 13" cx="135.885" cy="5.324" rx="135.885" ry="5.324" transform="translate(0 153.352)" fill="#333"/>
      <rect id="Rectangle_1" data-name="Rectangle 1" width="155.152" height="92.5" transform="translate(46.647 62.88)" fill="#3f3d56"/>
      <path id="Path_35" data-name="Path 35" d="M284.64,374.581a37.1,37.1,0,0,1-37.094,36.5c-.436,0-.87-.008-1.3-.023V374.581Z" transform="translate(-199.595 -311.701)" fill="#f6a0ac"/>
      <path id="Path_36" data-name="Path 36" d="M538.728,724.292H523.972a7.861,7.861,0,0,1,14.756,0Z" transform="translate(-406.916 -568.912)" fill="#f6a0ac"/>
      <path id="Path_37" data-name="Path 37" d="M814.559,550.721v31.157a15.6,15.6,0,0,1,0-31.157Z" transform="translate(-612.76 -443.187)" fill="#f6a0ac"/>
      <rect id="Rectangle_2" data-name="Rectangle 2" width="107.02" height="9.142" rx="4.571" transform="translate(70.847 96.492)" fill="#fff"/>
      <rect id="Rectangle_3" data-name="Rectangle 3" width="107.02" height="9.142" rx="4.571" transform="translate(70.847 114.508)" fill="#fff"/>
      <rect id="Rectangle_4" data-name="Rectangle 4" width="37.521" height="9.142" rx="4.571" transform="translate(140.346 132.524)" fill="#fff"/>
      <path id="Path_38" data-name="Path 38" d="M941.336,238.652a7.859,7.859,0,0,1,4.5,7.111c.237,5.451-1.185,20.621-1.185,20.621s5.214,7.585,1.185,9.718-4.5-8.533-4.5-8.533l-4.74-22.517S939.44,238.415,941.336,238.652Z" transform="translate(-714.933 -210.227)" fill="#a0616a"/>
      <path id="Path_39" data-name="Path 39" d="M751.733,216.142s-10.192,6.637-10.666,1.422,3.081-25.6,3.081-25.6.474-8.77,5.451-6.637-1.422,9.481-1.422,9.481l.711,16.591,4.74-.237Z" transform="translate(-568.941 -170.178)" fill="#a0616a"/>
      <path id="Path_40" data-name="Path 40" d="M760.351,318.492s-31.287-11.614-29.627,1.9,9.718,30.576,9.718,30.576l2.844,4.5h5.925l-3.792-24.413s13.51,7.585,17.539,6.4c0,0,5.214,34.842,7.111,37.449s5.214,34.131,5.214,34.131l3.081,3.792h5.926V359.5s10.192-33.183,2.37-34.842S760.351,318.492,760.351,318.492Z" transform="translate(-561.205 -266.366)" fill="#2f2e41"/>
      <path id="Path_41" data-name="Path 41" d="M724.347,462.446s-1.422-2.607-3.792,0-8.059,5.688-8.059,5.688-12.325,2.844-2.37,5.214,11.14,0,11.14,0,1.659.474,3.081.948,10.666-1.185,10.666-2.607-3.138-9.921-4.413-8.634S724.347,462.446,724.347,462.446Z" transform="translate(-542.978 -376.426)" fill="#2f2e41"/>
      <path id="Path_42" data-name="Path 42" d="M876.774,688.523s-3.495-2.878-4.317-2.056-5.139,6.373-5.139,6.373-11.512,8.84-1.028,10.279,9.868-2.467,9.868-2.467h3.289c.411,0,5.962-2.467,5.756-3.495s-2.672-9.409-3.495-8.816S876.774,688.523,876.774,688.523Z" transform="translate(-659.161 -544.409)" fill="#2f2e41"/>
      <circle id="Ellipse_14" data-name="Ellipse 14" cx="8.059" cy="8.059" r="8.059" transform="translate(177.814 3.3)" fill="#a0616a"/>
      <path id="Path_43" data-name="Path 43" d="M803.2,167.615s6.163,5.214,10.429,5.214-6.162,9.718-6.162,9.718l-9.244-8.3Z" transform="translate(-611.642 -157.204)" fill="#a0616a"/>
      <path id="Path_44" data-name="Path 44" d="M786.381,183.115l-.185-1.867s4.688-8.325,6.11-9.036a5.884,5.884,0,0,1,2.37-.711s4.74-4.977,9.955-2.37,17.539,19.2,17.539,19.2-8.77.711-7.585,7.585c0,0,8.77,22.517,6.4,22.754s-9.481-1.422-16.828,1.9-10.666,1.185-10.666,1.185L789.7,209.424s-7.111-4.029-6.874-7.585l-10.31,4.622.948-8.77,6.281-7.229S778.559,189.514,786.381,183.115Z" transform="translate(-592.449 -157.772)" fill="#6c63ff"/>
      <path id="Path_45" data-name="Path 45" d="M754.3,138.781a2.976,2.976,0,0,1-1.17.8,1.021,1.021,0,0,1-1.22-.47l.341-.444-1.021-.635.445-.522-.823-.893.649-.515-1.236-.884c1.6-2.615,3.336-5.263,5.866-7s6.065-2.349,8.657-.71a9.466,9.466,0,0,1,3.059,3.6c1.533,2.812,2.884,5.552,3.084,8.748-.963-.938-2.369-1.466-3.332-2.4a7.216,7.216,0,0,0-1.437-1.176,12.025,12.025,0,0,0-3.34-.874,5.018,5.018,0,0,1-2.281-1.254c-.853-.727-.888-.446-1.75.372Q756.543,136.652,754.3,138.781Z" transform="translate(-575.837 -126.55)" fill="#2f2e41"/>
    </g>
    <ellipse id="Ellipse_20" data-name="Ellipse 20" cx="285.5" cy="295.5" rx="285.5" ry="295.5" transform="translate(127 690)" fill="#333"/>
  </g>
</svg>
