<svg xmlns="http://www.w3.org/2000/svg" xmlns:xlink="http://www.w3.org/1999/xlink" width="412" height="847" viewBox="0 0 412 847">
  <defs>
    <linearGradient id="linear-gradient" x1="0.5" x2="0.5" y2="1" gradientUnits="objectBoundingBox">
      <stop offset="0" stop-color="#70a9bf"/>
      <stop offset="1" stop-color="#385560"/>
    </linearGradient>
    <clipPath id="clip-Register">
      <rect width="412" height="847"/>
    </clipPath>
  </defs>
  <g id="Register" clip-path="url(#clip-Register)">
    <rect width="412" height="847" fill="#fff"/>
    <circle id="Ellipse_9" data-name="Ellipse 9" cx="69" cy="69" r="69" transform="translate(-100 504)" fill="#f6a0ac"/>
    <circle id="Ellipse_11" data-name="Ellipse 11" cx="69" cy="69" r="69" transform="translate(-69)" fill="#f6a0ac"/>
    <circle id="Ellipse_6" data-name="Ellipse 6" cx="69" cy="69" r="69" transform="translate(376 450)" fill="#f6a0ac"/>
    <circle id="Ellipse_7" data-name="Ellipse 7" cx="69" cy="69" r="69" transform="translate(-39 -42)" fill="#70a9bf"/>
    <circle id="Ellipse_8" data-name="Ellipse 8" cx="69" cy="69" r="69" transform="translate(-69 552)" fill="url(#linear-gradient)"/>
    <circle id="Ellipse_10" data-name="Ellipse 10" cx="69" cy="69" r="69" transform="translate(-39 -42)" fill="url(#linear-gradient)"/>
    <circle id="Ellipse_12" data-name="Ellipse 12" cx="69" cy="69" r="69" transform="translate(376 28)" fill="url(#linear-gradient)"/>
    <g id="reg_text" transform="translate(85.831 31.469)">
      <g id="Group_15" data-name="Group 15" transform="translate(31.169 161.228)">
        <g id="Group_13" data-name="Group 13" transform="translate(0 0)">
          <path id="Path_25" data-name="Path 25" d="M21.316-41.675c-.251-.109-.5-.218-.751-.323q-.324-.1-.76-.21a3.607,3.607,0,0,0-.908-.114,8.045,8.045,0,0,0-2.9.515,7.444,7.444,0,0,0-2.306,1.363,6.5,6.5,0,0,0-1.529,2.018,5.506,5.506,0,0,0-.559,2.437l-.061,15.243h-5.2V-46.453h4.132l1.066,2.848a7.868,7.868,0,0,1,2.822-2.5,9.13,9.13,0,0,1,4.376-.943,18.336,18.336,0,0,1,3.913.489Zm0,0" transform="translate(-6.344 47.047)" fill="#333"/>
        </g>
        <g id="Group_14" data-name="Group 14" transform="translate(18.514 0)">
          <path id="Path_26" data-name="Path 26" d="M16.59-20.1a13.153,13.153,0,0,1-5.241-1.048A13.487,13.487,0,0,1,7.085-24.02a13.409,13.409,0,0,1-2.874-4.289,13.394,13.394,0,0,1-1.04-5.259,13.979,13.979,0,0,1,.987-5.259,13.964,13.964,0,0,1,2.682-4.3A12.576,12.576,0,0,1,10.789-46a11.311,11.311,0,0,1,4.831-1.048,12.639,12.639,0,0,1,4.857.917,9.9,9.9,0,0,1,3.861,2.848,13.648,13.648,0,0,1,2.551,4.909,24.331,24.331,0,0,1,.917,7.111H8.7a8.68,8.68,0,0,0,1.179,2.6,9.335,9.335,0,0,0,1.9,2.1A8.276,8.276,0,0,0,14.248-25.2a8.6,8.6,0,0,0,2.874.48A9.41,9.41,0,0,0,20.9-25.47a9.417,9.417,0,0,0,2.979-1.983l3.223,3.223a13.982,13.982,0,0,1-4.595,3A15.27,15.27,0,0,1,16.59-20.1Zm-.97-22.223a5.691,5.691,0,0,0-2.332.489A7.53,7.53,0,0,0,11.243-40.5a8.274,8.274,0,0,0-1.607,2.044,9.4,9.4,0,0,0-1,2.568H22.224a8.134,8.134,0,0,0-.594-2.463,6.345,6.345,0,0,0-1.345-2.062,6.262,6.262,0,0,0-2.009-1.4A6.466,6.466,0,0,0,15.62-42.321Zm0,0" transform="translate(-3.172 47.047)" fill="#333"/>
        </g>
      </g>
      <g id="Group_17" data-name="Group 17" transform="translate(78.661 161.228)">
        <g id="Group_16" data-name="Group 16" transform="translate(0 0)">
          <path id="Path_27" data-name="Path 27" d="M16.521-22.029a12.073,12.073,0,0,1-4.935-1,12.209,12.209,0,0,1-3.922-2.734,13,13,0,0,1-2.6-4.027,12.648,12.648,0,0,1-.935-4.857,12.462,12.462,0,0,1,.935-4.831,12.352,12.352,0,0,1,2.6-3.94,12.224,12.224,0,0,1,3.922-2.664,12.354,12.354,0,0,1,4.935-.97,12.29,12.29,0,0,1,4.673.812,10.465,10.465,0,0,1,3.485,2.306l1.074-2.525h4.079v6.875q0,2.254.026,5.634t.026,8.211q0,1.608-.1,3.136a17.489,17.489,0,0,1-.454,2.953A12.581,12.581,0,0,1,28.3-16.91a11.686,11.686,0,0,1-1.8,2.551,10.791,10.791,0,0,1-4.857,3.031,20.643,20.643,0,0,1-5.713.777,17.754,17.754,0,0,1-4.857-.646,17.193,17.193,0,0,1-4.106-1.712v-5.8a7.434,7.434,0,0,0,3.354,2.525,13.119,13.119,0,0,0,5.18.97,12.08,12.08,0,0,0,3.59-.515A8.019,8.019,0,0,0,22-17.285a7.378,7.378,0,0,0,1.957-2.708,9.894,9.894,0,0,0,.725-3.975v-1.013A8.8,8.8,0,0,1,23.1-23.854a13.191,13.191,0,0,1-2.035.935,15.942,15.942,0,0,1-2.289.646A11.051,11.051,0,0,1,16.521-22.029Zm.489-20.292a7.476,7.476,0,0,0-2.953.594,7.547,7.547,0,0,0-2.446,1.634,7.665,7.665,0,0,0-1.642,2.446,7.649,7.649,0,0,0-.585,3,7.873,7.873,0,0,0,.585,3.031,7.567,7.567,0,0,0,1.642,2.472,8.062,8.062,0,0,0,2.446,1.66,7.168,7.168,0,0,0,2.953.62,8.929,8.929,0,0,0,2.944-.48,6.711,6.711,0,0,0,2.42-1.45,6.778,6.778,0,0,0,1.607-2.42,9.031,9.031,0,0,0,.594-3.433,9.593,9.593,0,0,0-.594-3.573A6.191,6.191,0,0,0,22.373-40.6a6.1,6.1,0,0,0-2.42-1.319A10.6,10.6,0,0,0,17.01-42.321Zm0,0" transform="translate(-4.125 47.047)" fill="#333"/>
        </g>
      </g>
      <g id="Group_19" data-name="Group 19" transform="translate(110.546 149.531)">
        <g id="Group_18" data-name="Group 18" transform="translate(0 0)">
          <path id="Path_28" data-name="Path 28" d="M10.379-29.97H5.173V-55.678h5.145ZM7.75-61.26a3.185,3.185,0,0,1-2.367-.987,3.317,3.317,0,0,1-.961-2.393A3.206,3.206,0,0,1,5.383-67a3.22,3.22,0,0,1,2.367-.97A3.184,3.184,0,0,1,10.1-67a3.2,3.2,0,0,1,.97,2.359,3.307,3.307,0,0,1-.97,2.393A3.15,3.15,0,0,1,7.75-61.26Zm0,0" transform="translate(-4.422 67.969)" fill="#333"/>
        </g>
      </g>
      <g id="Group_21" data-name="Group 21" transform="translate(121.066 161.394)">
        <g id="Group_20" data-name="Group 20" transform="translate(0)">
          <path id="Path_29" data-name="Path 29" d="M16.33-25.977a5.944,5.944,0,0,0,.856-.97,2.088,2.088,0,0,0,.376-1.232,1.917,1.917,0,0,0-.62-1.45,5.237,5.237,0,0,0-1.5-1,9.209,9.209,0,0,0-1.852-.611q-.963-.216-1.6-.384a25.3,25.3,0,0,1-3.337-1.04,11.256,11.256,0,0,1-2.708-1.5,6.853,6.853,0,0,1-1.826-2.1,5.859,5.859,0,0,1-.664-2.874A5.938,5.938,0,0,1,4.2-42.05a8.376,8.376,0,0,1,2.009-2.42,9.742,9.742,0,0,1,2.944-1.66,10.352,10.352,0,0,1,3.582-.62,10.374,10.374,0,0,1,3.162.48,10.131,10.131,0,0,1,2.708,1.319,8.055,8.055,0,0,1,2.044,2.009,6.657,6.657,0,0,1,1.1,2.629l-4.673,1.127a3.9,3.9,0,0,0-1.4-2.14,4.551,4.551,0,0,0-2.944-.865A5.115,5.115,0,0,0,11.394-42a4.592,4.592,0,0,0-1.293.559,3.705,3.705,0,0,0-.987.917,1.988,1.988,0,0,0-.4,1.232A1.939,1.939,0,0,0,9.167-38a3.736,3.736,0,0,0,1.1.882,6.913,6.913,0,0,0,1.4.568q.75.21,1.389.367a31.364,31.364,0,0,1,4.726,1.5,11.646,11.646,0,0,1,3,1.773,5.473,5.473,0,0,1,1.581,2.123,6.955,6.955,0,0,1,.463,2.6,6.827,6.827,0,0,1-.786,3.215,8.1,8.1,0,0,1-2.149,2.6,10.129,10.129,0,0,1-3.267,1.721,13.211,13.211,0,0,1-4.106.62A10.933,10.933,0,0,1,6.59-21.653a8.083,8.083,0,0,1-3.512-4.385l4.394-1.983a5.055,5.055,0,0,0,2.2,2.551,6.737,6.737,0,0,0,3.066.673A5.508,5.508,0,0,0,16.33-25.977Zm0,0" transform="translate(-3.078 46.75)" fill="#333"/>
        </g>
      </g>
      <g id="Group_24" data-name="Group 24" transform="translate(143.55 154.956)">
        <g id="Group_22" data-name="Group 22" transform="translate(0 0)">
          <path id="Path_30" data-name="Path 30" d="M17.853-25.744a17.4,17.4,0,0,1-4.35.908,7.824,7.824,0,0,1-3.87-.611,6.049,6.049,0,0,1-2.787-2.734,11.6,11.6,0,0,1-1.074-5.5V-46.726H2.016v-3.6L5.772-51.4v-6.866h5.206V-51.4h6.98v4.673h-6.98V-32.88a5.655,5.655,0,0,0,.3,2.035,2.114,2.114,0,0,0,.987,1.127,3.839,3.839,0,0,0,1.826.376,21.886,21.886,0,0,0,2.743-.21Zm0,0" transform="translate(-2.016 58.266)" fill="#333"/>
        </g>
        <g id="Group_23" data-name="Group 23" transform="translate(19.002 6.272)">
          <path id="Path_31" data-name="Path 31" d="M16.59-20.1a13.153,13.153,0,0,1-5.241-1.048A13.487,13.487,0,0,1,7.085-24.02a13.409,13.409,0,0,1-2.874-4.289,13.394,13.394,0,0,1-1.04-5.259,13.979,13.979,0,0,1,.987-5.259,13.964,13.964,0,0,1,2.682-4.3A12.576,12.576,0,0,1,10.789-46a11.311,11.311,0,0,1,4.831-1.048,12.639,12.639,0,0,1,4.857.917,9.9,9.9,0,0,1,3.861,2.848,13.648,13.648,0,0,1,2.551,4.909,24.331,24.331,0,0,1,.917,7.111H8.7a8.68,8.68,0,0,0,1.179,2.6,9.335,9.335,0,0,0,1.9,2.1A8.276,8.276,0,0,0,14.248-25.2a8.6,8.6,0,0,0,2.874.48A9.41,9.41,0,0,0,20.9-25.47a9.417,9.417,0,0,0,2.979-1.983l3.223,3.223a13.982,13.982,0,0,1-4.595,3A15.27,15.27,0,0,1,16.59-20.1Zm-.97-22.223a5.691,5.691,0,0,0-2.332.489A7.53,7.53,0,0,0,11.243-40.5a8.274,8.274,0,0,0-1.607,2.044,9.4,9.4,0,0,0-1,2.568H22.224a8.134,8.134,0,0,0-.594-2.463,6.345,6.345,0,0,0-1.345-2.062,6.262,6.262,0,0,0-2.009-1.4A6.466,6.466,0,0,0,15.62-42.321Zm0,0" transform="translate(-3.172 47.047)" fill="#333"/>
        </g>
      </g>
      <g id="Group_26" data-name="Group 26" transform="translate(192.77 161.228)">
        <g id="Group_25" data-name="Group 25" transform="translate(0 0)">
          <path id="Path_32" data-name="Path 32" d="M21.316-41.675c-.251-.109-.5-.218-.751-.323q-.324-.1-.76-.21a3.607,3.607,0,0,0-.908-.114,8.045,8.045,0,0,0-2.9.515,7.444,7.444,0,0,0-2.306,1.363,6.5,6.5,0,0,0-1.529,2.018,5.506,5.506,0,0,0-.559,2.437l-.061,15.243h-5.2V-46.453h4.132l1.066,2.848a7.868,7.868,0,0,1,2.822-2.5,9.13,9.13,0,0,1,4.376-.943,18.336,18.336,0,0,1,3.913.489Zm0,0" transform="translate(-6.344 47.047)" fill="#333"/>
        </g>
      </g>
    </g>
    <g id="reg_logo" transform="translate(-86 32)">
      <path id="Path_47" data-name="Path 47" d="M674.431,124.769h-50.32a10.7,10.7,0,0,0-10.435,8.344L588.25,245.891a8.646,8.646,0,0,0,8.008,10.537l51.73,2.549a11.422,11.422,0,0,0,11.8-9.375l14.423-79.735,1.073.307,2.759-15.113-1.1-.276,4.026-22.257a6.586,6.586,0,0,0-6.535-7.758Z" transform="translate(-268.866 -124.769)" fill="#333"/>
      <path id="Path_48" data-name="Path 48" d="M649.986,136.395h-5.874a7.393,7.393,0,0,0-7.223,5.817L612.484,254.069a4.581,4.581,0,0,0,4.176,5.547L668.222,263a5.932,5.932,0,0,0,6.226-4.868l20.825-115.616a5.2,5.2,0,0,0-5.114-6.117h-5.572a2.452,2.452,0,0,0-2.368,1.815h0a2.165,2.165,0,0,1-2.09,1.6H653.676a3.7,3.7,0,0,1-3.69-3.417Z" transform="translate(-288.115 -133.963)" fill="#fff"/>
      <path id="Path_49" data-name="Path 49" d="M528.288,401.225l4.546,9,13.594,6.18c1.452,2.453,6.065,2.641,6.4,1.055.376-1.78-5.6-4.645-5.6-4.645l-11.37-7.691-.995-6.621Z" transform="translate(-221.611 -341.258)" fill="#a0616a"/>
      <path id="Path_50" data-name="Path 50" d="M360.582,575.559l-.838,6.707,4.863.335.5-7.043Z" transform="translate(-53.369 -455.191)" fill="#a0616a"/>
      <path id="Path_51" data-name="Path 51" d="M522.544,715.511a13.187,13.187,0,0,1-1.2-1.467c-.7-.965-1.315,3.983-1.315,3.983a8.976,8.976,0,0,0-.5,3.018c.168,1.006,4.024,1.006,4.7.838a31.719,31.719,0,0,1,4.025,0h5.031c4.36-2.012,0-3.354,0-3.354-1.341-.168-5.869-4.36-5.869-4.36l-1.006-1.845c-.671-.168-1.341,2.348-1.341,2.348Z" transform="translate(-214.66 -589.442)" fill="#2f2e41"/>
      <path id="Path_52" data-name="Path 52" d="M300.446,575.96l-.839,6.708,4.863.335.5-7.043Z" transform="translate(-5.809 -455.508)" fill="#a0616a"/>
      <path id="Path_53" data-name="Path 53" d="M462.407,715.912a13.173,13.173,0,0,1-1.2-1.467c-.7-.964-1.315,3.983-1.315,3.983a7.777,7.777,0,0,0-.5,2.851c.168,1.006,4.024,1.006,4.7.838a27.293,27.293,0,0,1,4.024.168h5.031c4.36-2.012,0-3.354,0-3.354-1.341-.168-5.869-4.36-5.869-4.36l-1.006-1.844c-.671-.168-1.342,2.348-1.342,2.348Z" transform="translate(-167.099 -589.759)" fill="#2f2e41"/>
      <path id="Path_54" data-name="Path 54" d="M472.445,492.45c-.671.838-.335,3.689-.335,3.689s-1.174,9.223-.671,10.061-.335,1.509-.838,2.683a26.779,26.779,0,0,0-1.006,4.024c-2.851,2.348-2.683,13.08-2.683,13.08l-1.006,9.558c.335,1.006,5.031,1.174,5.7,1.006s2.683-15.259,2.683-15.259l4.528-8.552s-.335,22.805-.335,23.811,4.527.5,5.534.5,1.006-16.769,1.006-16.769l1.006-4.36,5.366-19.955v-2.348l-.838-1.174S473.115,491.612,472.445,492.45Z" transform="translate(-172.274 -415.261)" fill="#2f2e41"/>
      <circle id="Ellipse_15" data-name="Ellipse 15" cx="5.198" cy="5.198" r="5.198" transform="translate(302.351 28.727)" fill="#a0616a"/>
      <path id="Path_55" data-name="Path 55" d="M518.884,298.615c-1.054,2.346-.43,5.624,1.677,9.223l-8.552-4.024,1.342-1.174-.335-3.354Z" transform="translate(-208.736 -262.258)" fill="#a0616a"/>
      <path id="Path_56" data-name="Path 56" d="M494.788,319.2a5.366,5.366,0,0,1,2.174,3.134,29.7,29.7,0,0,1,1.276,7.1l.406,7.21,5.031,19.116c-4.36,3.689-6.875,2.851-12.744-.168s-6.54,1.006-6.54,1.006-.5-.168,0-.671,0,0-.5-.5,0,0,.168-.5,0-.168-.168-.335.671-1.677.671-1.677l-1.341-12.577-1.677-17.775c2.012-2.515,7.714-4.7,7.714-4.7l5.2,3.689c1.677.671.335-2.012.335-2.012Z" transform="translate(-184.64 -277.478)" fill="#6c63ff"/>
      <path id="Path_57" data-name="Path 57" d="M465.774,391.226l-.671,10.061,8.552,12.241c0,2.851,1.509,3.521,1.509,3.521a22.158,22.158,0,0,0,1.509-2.851,3.255,3.255,0,0,0-.5-3.354L470.3,398.437l2.515-6.2Z" transform="translate(-171.64 -335.501)" fill="#a0616a"/>
      <path id="Path_58" data-name="Path 58" d="M469.259,339.4c-2.851,1.006-3.354,11.906-3.354,11.906,3.354-1.845,7.378,1.174,7.378,1.174s.838-2.851,1.845-6.54a6.409,6.409,0,0,0-1.341-6.037A4.567,4.567,0,0,0,469.259,339.4Z" transform="translate(-172.275 -294.243)" fill="#6c63ff"/>
      <path id="Path_59" data-name="Path 59" d="M506.595,261.258c.662-.529,1.565.433,1.565.433l.529-4.765a18.888,18.888,0,0,0,5.426-.132c2.118-.529,2.449,1.919,2.449,1.919a17,17,0,0,0,.066-2.978c-.132-1.191-1.853-2.382-4.9-3.176s-4.632,2.647-4.632,2.647C504.983,256.264,505.933,261.787,506.595,261.258Z" transform="translate(-203.825 -225.739)" fill="#2f2e41"/>
      <path id="Path_60" data-name="Path 60" d="M723.874,266.847a.424.424,0,0,0,.432-.342l11.562-62.931a.418.418,0,0,0-.406-.494l-52.6-.613h0a.42.42,0,0,0-.408.327l-13.63,60.889a.418.418,0,0,0,.388.509Z" transform="translate(-332.742 -186.218)" fill="#e3e3e3"/>
      <path id="Path_61" data-name="Path 61" d="M710.6,529.535a.209.209,0,0,0-.2.162l-.486,2.082a.209.209,0,0,0,.189.256l27.444,1.951a.211.211,0,0,0,.22-.169l.467-2.409a.209.209,0,0,0-.193-.249l-27.426-1.624Z" transform="translate(-365.248 -444.886)" fill="#333"/>
      <path id="Path_62" data-name="Path 62" d="M739.311,567.829a.21.21,0,0,0,.22-.159l.595-2.414a.21.21,0,0,0-.189-.259l-35.048-2.451a.207.207,0,0,0-.215.149l-.618,2.086a.209.209,0,0,0,.184.268Z" transform="translate(-360.613 -470.993)" fill="#333"/>
      <path id="Path_63" data-name="Path 63" d="M730.311,604.829a.209.209,0,0,0,.22-.159l.595-2.414a.209.209,0,0,0-.189-.259l-35.048-2.451a.207.207,0,0,0-.215.149l-.618,2.086a.209.209,0,0,0,.184.268Z" transform="translate(-353.495 -500.255)" fill="#333"/>
    </g>
    <ellipse id="Ellipse_21" data-name="Ellipse 21" cx="285.5" cy="295.5" rx="285.5" ry="295.5" transform="translate(127 690)" fill="#333"/>
  </g>
</svg>
